<?xml version="1.0" encoding="utf-8"?>
<!-- Generator: Adobe Illustrator 27.5.0, SVG Export Plug-In . SVG Version: 6.00 Build 0)  -->
<svg version="1.1" xmlns="http://www.w3.org/2000/svg" xmlns:xlink="http://www.w3.org/1999/xlink" x="0px" y="0px"
	 viewBox="0 0 500 500" style="enable-background:new 0 0 500 500;" xml:space="preserve">
<g id="Background_1_">
	<g id="Background">
		<path style="fill:#455A64;" d="M429.6,198.457c-11.567,11.035-14.481,20.997-16.479,36.939
			c-1.892,15.093,4.548,34.337,11.59,43.41c7.042,9.073,12.236,6.87,13.802-1.712c0.774-4.243-3.9-19.253-0.397-33.062
			c2.357-9.292,8.335-20.629,10.963-28.876c2.972-9.325,0.089-17.611-4.289-20.355C442.088,193.109,434.328,193.947,429.6,198.457z"
			/>
		<path style="fill:#455A64;" d="M121.749,150.497c-8.199,8.73-13.931,17.754-20.328,29.48c-4.094,7.505-6.73,17.353-12.861,23.996
			c-8.746,9.478-21.397-0.214-23.943-14.614c-5.267-29.793,6.838-49.742,18.827-62.593c14.151-15.168,42.111-24.08,67.25-25.224
			c27.959-1.272,30.001,10.423,12.132,19.075C147.772,127.907,132.19,139.38,121.749,150.497z"/>
		<path style="fill:#455A64;" d="M150.136,422.902c-13.882-6.882-23.956-13.744-31.865-25.82
			c-6.912-10.554-10.251-14.934-16.117-14.04c-12.098,1.844-18.431,25.862-10.583,43.185c10.072,22.23,37.972,31.536,67.271,31.802
			c33.015,0.3,44.829-9.37,46.024-13.324c1.803-5.967-3.904-9.865-15.805-11.443C176.875,431.646,157.943,426.772,150.136,422.902z"
			/>
		<path style="fill:#455A64;" d="M415.883,197.372c19.665-45.415,43.56-114.104-36.067-121.712
			c-0.634-0.061-1.261-0.109-1.882-0.148c-92.379-7.373-171.484,29.702-213.656,60.296c-42.458,30.802-62.366,62.772-73.302,121.271
			c-10.936,58.499,15.361,132.935,77.128,157.15c61.766,24.215,151.785,18.037,198.617-23.749
			c44.972-40.127,53.832-93.339,37.965-132.692C401.282,243.537,401.47,230.658,415.883,197.372z"/>
	</g>
</g>
<g id="Character">
	<g id="Face">
		<path id="Skin" style="fill:#FFA8A7;" d="M379.815,75.66c5.114,20.367,14.068,73.588-5.133,88.729c0,0,6.785,5.776,6.785,23.637
			c0,0,2.765,4.813,2.098,18.635c-0.5,10.368-0.337,17.273,9.532,30.45c29.521,39.413,27.107,105.645-26.378,153.368
			c-46.832,41.786-136.85,47.964-198.617,23.749c-61.766-24.215-88.063-98.651-77.128-157.15
			c10.936-58.499,30.843-90.469,73.302-121.271C206.736,105.005,286.628,67.627,379.815,75.66z"/>
		<g>
			<path id="Shadow_1_" style="opacity:0.05;" d="M393.098,237.11c-9.869-13.176-10.032-20.082-9.532-30.45
				c0.667-13.822-2.098-18.635-2.098-18.635c0-17.861-6.785-23.637-6.785-23.637c10.038-7.915,12.374-26.239,11.594-44.834
				c-18.388-3.005-46.692,13.487-63.805,57.948c-19.665,51.092-9.832,90.831,4.918,111.745
				c10.258,15.288,22.808,23.477,35.132,35.441c12.324,11.964,4.198,23.122,0.889,26.843c-3.309,3.721-16.356,16.148-16.965,22.879
				c-3.582,10.809,1.127,20.999,9.761,24.358c3.699-2.59,7.217-5.349,10.513-8.29C420.204,342.756,422.618,276.523,393.098,237.11z"
				/>
			<path id="Shadow" style="opacity:0.05;" d="M242.103,194.876c12.7,6.004,27.794,28.921,32.711,62.973
				c4.464,30.912-1.505,55.9-11.338,55.9c-9.833,0-29.498-73.151-63.913-62.122s-59,53.608-68.831,42.253
				c-9.831-11.355-18.757-44.893,7.83-69.282C165.148,200.21,210.898,183.864,242.103,194.876z"/>
			<g id="Freckles">
				<circle style="fill:#F28F8F;" cx="140.566" cy="359.507" r="2.963"/>
				<path style="fill:#F28F8F;" d="M170.927,376.496c0.498,1.559-0.362,3.226-1.921,3.725c-1.559,0.498-3.226-0.362-3.725-1.921
					c-0.498-1.559,0.362-3.226,1.92-3.725C168.761,374.077,170.429,374.937,170.927,376.496z"/>
				<path style="fill:#F28F8F;" d="M199.422,358.136c0.498,1.559-0.362,3.226-1.921,3.725s-3.226-0.362-3.725-1.921
					c-0.498-1.559,0.362-3.226,1.92-3.725C197.257,355.717,198.924,356.577,199.422,358.136z"/>
				<path style="fill:#F28F8F;" d="M381.027,261.032c0.498,1.559-0.362,3.226-1.921,3.725c-1.559,0.498-3.226-0.362-3.725-1.921
					c-0.498-1.559,0.362-3.226,1.921-3.725C378.861,258.613,380.529,259.473,381.027,261.032z"/>
				<path style="fill:#F28F8F;" d="M396.984,274.759c0.498,1.559-0.362,3.226-1.921,3.725c-1.559,0.498-3.226-0.362-3.725-1.921
					s0.362-3.226,1.921-3.725C394.818,272.341,396.486,273.201,396.984,274.759z"/>
				<path style="fill:#F28F8F;" d="M353.99,274.59c0.498,1.559-0.362,3.226-1.921,3.725c-1.559,0.498-3.226-0.362-3.725-1.921
					c-0.498-1.559,0.362-3.226,1.92-3.725C351.824,272.171,353.492,273.031,353.99,274.59z"/>
				<path style="fill:#F28F8F;" d="M310.546,287.3c0.498,1.559-0.362,3.227-1.921,3.725c-1.559,0.498-3.226-0.362-3.725-1.921
					c-0.498-1.559,0.362-3.227,1.921-3.725C308.38,284.881,310.047,285.741,310.546,287.3z"/>
				<path style="fill:#F28F8F;" d="M191.137,402.205c0.498,1.559-0.362,3.227-1.921,3.725c-1.559,0.498-3.226-0.362-3.725-1.921
					c-0.498-1.559,0.362-3.227,1.921-3.725C188.971,399.787,190.638,400.646,191.137,402.205z"/>
				<path style="fill:#F28F8F;" d="M132.688,336.032c0.498,1.559-0.362,3.226-1.92,3.725c-1.559,0.498-3.227-0.362-3.725-1.921
					c-0.498-1.559,0.362-3.226,1.921-3.725C130.523,333.613,132.19,334.473,132.688,336.032z"/>
				<path style="fill:#F28F8F;" d="M130.519,370.715c0.498,1.559-0.362,3.226-1.921,3.725c-1.559,0.498-3.226-0.362-3.725-1.921
					c-0.498-1.559,0.362-3.226,1.921-3.725C128.353,368.296,130.021,369.156,130.519,370.715z"/>
				<path style="fill:#F28F8F;" d="M234.044,343.774c0.354,1.107-0.257,2.291-1.364,2.645c-1.107,0.354-2.291-0.257-2.645-1.364
					c-0.354-1.107,0.257-2.291,1.364-2.645C232.507,342.056,233.691,342.667,234.044,343.774z"/>
				<path style="fill:#F28F8F;" d="M393.305,244.985c0.354,1.107-0.257,2.291-1.364,2.645c-1.107,0.354-2.291-0.257-2.645-1.364
					c-0.354-1.107,0.257-2.291,1.364-2.645C391.767,243.267,392.952,243.878,393.305,244.985z"/>
				<path style="fill:#F28F8F;" d="M332.302,272.211c0.354,1.107-0.257,2.291-1.364,2.645c-1.107,0.354-2.291-0.257-2.645-1.364
					c-0.354-1.107,0.257-2.291,1.364-2.645C330.764,270.493,331.949,271.104,332.302,272.211z"/>
				<path style="fill:#F28F8F;" d="M356.173,294.808c0.354,1.107-0.257,2.291-1.364,2.645c-1.107,0.354-2.291-0.257-2.645-1.364
					c-0.354-1.107,0.257-2.291,1.364-2.645C354.635,293.09,355.82,293.701,356.173,294.808z"/>
				<path style="fill:#F28F8F;" d="M405.243,290.4c0.354,1.107-0.257,2.291-1.364,2.645c-1.107,0.354-2.291-0.257-2.645-1.364
					c-0.354-1.107,0.257-2.291,1.364-2.645C403.706,288.683,404.89,289.293,405.243,290.4z"/>
				<path style="fill:#F28F8F;" d="M262.53,373.851c0.354,1.107-0.257,2.291-1.364,2.645c-1.107,0.354-2.291-0.257-2.645-1.364
					c-0.354-1.107,0.257-2.291,1.364-2.645C260.992,372.133,262.176,372.744,262.53,373.851z"/>
				<path style="fill:#F28F8F;" d="M302.807,319.425c0.354,1.107-0.257,2.291-1.364,2.645c-1.107,0.354-2.291-0.257-2.645-1.364
					c-0.354-1.107,0.257-2.291,1.364-2.645C301.269,317.708,302.453,318.318,302.807,319.425z"/>
				<path style="fill:#F28F8F;" d="M317.102,304.592c0.354,1.107-0.257,2.291-1.364,2.645c-1.107,0.354-2.291-0.257-2.645-1.364
					c-0.354-1.107,0.257-2.291,1.364-2.645C315.564,302.875,316.748,303.485,317.102,304.592z"/>
				<path style="fill:#F28F8F;" d="M290.06,276.208c0.354,1.107-0.257,2.291-1.364,2.645c-1.107,0.354-2.291-0.257-2.645-1.364
					c-0.354-1.107,0.257-2.291,1.364-2.645C288.523,274.491,289.707,275.101,290.06,276.208z"/>
				<path style="fill:#F28F8F;" d="M314.643,268.035c0.354,1.107-0.257,2.291-1.364,2.645c-1.107,0.354-2.291-0.257-2.645-1.364
					c-0.354-1.107,0.257-2.291,1.364-2.645C313.105,266.318,314.289,266.928,314.643,268.035z"/>
				<path style="fill:#F28F8F;" d="M295.893,247.824c0.354,1.107-0.257,2.291-1.364,2.645c-1.107,0.354-2.291-0.257-2.645-1.364
					c-0.354-1.107,0.257-2.291,1.364-2.645C294.355,246.106,295.539,246.717,295.893,247.824z"/>
				<path style="fill:#F28F8F;" d="M112.475,341.882c0.354,1.107-0.257,2.291-1.364,2.645c-1.107,0.354-2.291-0.257-2.645-1.364
					c-0.354-1.107,0.257-2.291,1.364-2.645C110.938,340.164,112.122,340.775,112.475,341.882z"/>
				<path style="fill:#F28F8F;" d="M223.233,384.245c0.354,1.107-0.257,2.291-1.364,2.645c-1.107,0.354-2.291-0.257-2.645-1.364
					c-0.354-1.107,0.257-2.291,1.364-2.645C221.695,382.527,222.879,383.138,223.233,384.245z"/>
				<path style="fill:#F28F8F;" d="M380.209,290.743c0.354,1.107-0.257,2.291-1.364,2.645c-1.107,0.354-2.291-0.257-2.645-1.364
					c-0.354-1.107,0.257-2.291,1.364-2.645C378.671,289.026,379.855,289.636,380.209,290.743z"/>
			</g>
			<g id="Eye_1_">
				<path style="fill:#F28F8F;" d="M377.459,168.266c-1.468-2.762-2.776-3.877-2.776-3.877c10.16-8.012,12.435-26.687,11.569-45.515
					c-0.543,0.008-1.1,0.028-1.695,0.075c-14.058,1.128-24.94,14.399-24.94,14.399c18.298-8.99,22.621,3.082,16.934,12.931
					c-4.916,8.515-24.496,13.347-33.639,22.708c0,0,18.428-11.625,30.95-2.974C375.116,166.879,376.313,167.622,377.459,168.266z"/>
				<path style="fill:#BA68C8;" d="M381.012,184.839l0.403-0.484c-0.431-7.728-2.238-12.773-3.844-15.872
					c-4.222-3.262-9.685-5.944-15.769-5.174c-13.916,1.763-34.296,11.605-39.33,42.11c-2.857,17.312-0.449,26.013-0.821,45.408
					L381.012,184.839z"/>
				<path style="opacity:0.2;" d="M381.415,184.356c-0.431-7.728-2.238-12.773-3.844-15.872c-3.685-2.848-8.316-5.252-13.48-5.305
					c-11.608,2.223-21.514,10.042-21.514,10.042c11.244-6.665,21.882-4.738,19.943-2.409c-1.939,2.329-23.81,1.013-32.18,35.417
					c0,0,16.353-28.772,34.068-26.772c6.756,0.763,11.821,3.502,15.509,6.598l1.094-1.216L381.415,184.356z"/>
				<g>
					<path style="fill:#F0F0F0;" d="M380.975,191.694c0.57,6.727,1.651,14.944-2.283,26.824
						c-3.934,11.88-17.951,28.57-32.633,32.442c0,0-5.06,0.909-8.839,1.565c-3.779,0.656-4.917,1.201-6.74,2.76
						c-1.823,1.559-6.366,3.858-8.009,1.352c-1.643-2.506,1.337-6.716,2.014-9.793c0.677-3.077,0.961-12.905,3.508-23.583
						c2.547-10.678,6.371-28.225,18.067-37.242c11.696-9.018,25.306-8.97,30.491-3.181
						C379.691,186.342,380.975,191.694,380.975,191.694z"/>
					<g>
						<path style="fill:#E0E0E0;" d="M378.693,218.518c3.934-11.88,2.853-20.097,2.283-26.824c0,0-1.284-5.352-4.424-8.857
							c-5.185-5.789-18.795-5.837-30.491,3.181c-0.909,0.702-1.756,1.47-2.574,2.267l2.333,4.122l7.463,2.468
							c9.239-6.046,19.514-5.35,22.818-0.035c4.166,6.701,3.158,22.229,1.036,27.539
							C377.755,221.054,378.282,219.759,378.693,218.518z"/>
						<path style="fill:#E0E0E0;" d="M329.242,229.087c-1.232,5.588-1.061,14.158,5.122,17.727
							c6.386,3.687,13.468,3.904,21.042,0.131c0,0-2.903,2.531-8.571,3.867c-5.668,1.336-11.088,1.06-14.53,2.903
							c-3.442,1.843-5.56,4.524-8.787,3.264c-3.228-1.26-1.106-5.515,0-8.33C324.623,245.835,326.627,234.664,329.242,229.087z"/>
						<path style="fill:#F28F8F;" d="M324.392,242.152c0.645,4.954,1.683,10.704,9.05,11.028c0,0-5.075,3.986-7.971,4.551
							c-2.896,0.565-5.014-0.833-3-5.861C324.486,246.844,324.392,242.152,324.392,242.152z"/>
					</g>
				</g>
				<g>
					<path style="fill:#263238;" d="M368.107,235.88c8.443-9.957,12.253-21.478,13.36-38.84
						C382.17,208.078,381.592,223.736,368.107,235.88z"/>
					<path style="fill:#263238;" d="M380.159,175.84c-3.231-9.332-19.744-15.076-38.447-0.92
						c-12.004,9.086-18.253,26.668-22.585,49.928c1.669-26.847,6.031-41.401,22.31-54.71c16.279-13.309,32.221-6.981,32.221-6.981
						s8.409-6.143,11.026-17.86c0,0-0.979,11.86-7.906,19.943C376.779,165.24,381.234,169.353,380.159,175.84z"/>
					<g>
						<g>
							<path style="fill:#BA68C8;" d="M366.011,218.236c-1.133,13.687-12.16,23.945-24.631,22.913
								c-6.235-0.516-11.651-3.757-15.366-8.58c2.891-17.267,9.174-31.135,19.468-40.984
								C357.953,192.618,367.144,204.55,366.011,218.236z"/>
						</g>
						<path style="opacity:0.2;" d="M353.282,194.876c-6.01,5.583-21.994,23.413-24.642,39.396l-1.253-3.953
							c0,0,0.359-8.621,4.917-20.292c4.558-11.67,12.34-17.619,12.34-17.619C347.78,192.528,350.648,193.38,353.282,194.876z"/>
						<path style="fill:#263238;" d="M346.355,194.118c4.918,0.696,9.351,3.339,12.575,7.525c3.508,4.555,5.166,10.377,4.668,16.394
							c-0.964,11.643-9.964,20.764-20.491,20.764c-0.507,0-1.021-0.021-1.528-0.063c-5.015-0.415-9.593-2.832-12.994-6.836
							C331.452,215.753,337.425,203.053,346.355,194.118 M345.483,191.586c-10.294,9.849-16.577,23.717-19.468,40.984
							c3.715,4.823,9.13,8.064,15.365,8.58c0.58,0.048,1.155,0.072,1.728,0.072c11.745,0,21.823-9.935,22.903-22.985
							C367.144,204.55,357.953,192.618,345.483,191.586L345.483,191.586z"/>
						<path style="fill:#263238;" d="M354.856,217.313c-0.573,6.925-6.153,12.116-12.463,11.593
							c-6.31-0.522-10.96-6.56-10.387-13.485c0.573-6.925,6.153-12.116,12.463-11.593
							C350.779,204.351,355.429,210.388,354.856,217.313z"/>
						<path style="fill:#FAFAFA;" d="M341.356,214.745c-0.194,2.342-2.202,4.088-4.486,3.899c-2.284-0.189-3.978-2.241-3.784-4.583
							c0.194-2.342,2.203-4.088,4.486-3.899C339.856,210.35,341.55,212.402,341.356,214.745z"/>
						<g>
							<path style="fill:#FAFAFA;" d="M327.981,236.684c-1.271-0.936-1.182-3.267,0.199-5.206c1.381-1.939,3.531-2.752,4.801-1.816
								c1.271,0.936,1.182,3.267-0.199,5.206C331.401,236.807,329.251,237.62,327.981,236.684z"/>
						</g>
					</g>
					<g>
						<path style="fill:#263238;" d="M373.862,185.3c4.143,0,9.272,2.801,14.164,4.999c2.61,1.173,5.787,0.605,7.224-0.643
							c-1.097,2.345-4.915,3.197-7.64,2.534c-3.508-0.854-4.466-1.318-6.635-0.495C380.975,191.694,380.194,187.483,373.862,185.3z"
							/>
						<path style="fill:#263238;" d="M379.954,181.47c-3.243-4.381-13.235-12.483-28.791-3.502
							c-18.019,10.403-23.788,35.245-26.125,50.284c-1.299,8.359-1.205,13.718-1.665,17.067c-0.367,2.676-1.062,3.647-1.721,5.509
							c-1.664,4.697-1.085,7.581,2.836,7.976c3.966,0.399,6.716-4.942,12.096-5.597c9.086-1.105,14.037-1.809,20.934-7.768
							c-4.708,3.373-11.404,5.863-20.297,6.081c-5.599,0.137-7.973,2.677-9.833,4.141c-3.39,2.67-5.785-0.051-3.829-4.115
							c1.062-2.207,1.532-3.778,1.961-5.921c0.675-3.369,1.49-8.112,2.836-13.243c2.203-8.396,9.438-35.341,24.389-43.973
							c14.951-8.632,25.908-3.055,28.722-0.382C381.468,188.026,382.124,184.402,379.954,181.47z"/>
						<path style="fill:#263238;" d="M354.339,187.488c10.115-4.309,16.505-4.099,27.129,0.538c4.146,1.81,12.184,0.83,16.393-5.707
							c-6.56,4.212-10.332,3.781-21.31-0.747C369.547,178.684,359.028,182.646,354.339,187.488z"/>
						<path style="fill:#263238;" d="M325.873,243.246c-0.204,3.835,1.334,7.502,2.99,8.625c-2.425-0.532-3.844-2.188-4.377-5.027
							C323.953,244.005,325.873,243.246,325.873,243.246z"/>
					</g>
				</g>
				<path style="fill:#F28F8F;" d="M382.417,214.402c0.17,6.564-3.175,19.004-14.309,27.584
					C380.977,236.012,384.483,225.245,382.417,214.402z"/>
				<path style="fill:#263238;" d="M386.407,123.974c-8.794-4.465-25.248,9.088-36.961,20.923c-9.897,10-11.087,5.326-10.976-1.456
					c0.111-6.782,5.117-12.398,15.868-20.35c16.481-12.19,27.338-9.022,31.772-6.871
					C386.384,117.062,386.702,122.188,386.407,123.974z"/>
			</g>
			<g id="Nose">
				<path style="fill:#F28F8F;" d="M291.501,340.584c1.179,2.781,1.363,8.97-1.558,12.655c-2.922,3.685-6.364,10.485-4.043,17.278
					c2.321,6.793,5.151,8.516,5.151,8.516s-11.46-2.509-11.495-14.192c-0.028-9.26,6.242-12.551,8.959-15.916
					C291.707,344.972,291.501,340.584,291.501,340.584z"/>
				<path style="fill:#F28F8F;" d="M346.689,373.357c-3.435,5.132-10.319,6.836-20.131,4.041
					c-9.812-2.794-27.381,14.802-39.747-4.227c0-9.52,9.644-13.248,29.417-13.31s23.854-20.567,37.265-26.243
					s18.226,8.474,13.226,14.192C359.272,356.326,350.126,365.484,346.689,373.357z"/>
				<g>
					<g>
						<path style="fill:#263238;" d="M327.389,289.247c7.925,14.938,19.666,24.501,30.679,34.272
							c9.5,8.429,9.937,19.234,2.788,28.084c-7.19,8.902-12.766,14.471-14.41,22.807c5.685-9.742,13.31-15.174,20.274-23.261
							c7.003-8.132,8.281-20.788-2.267-29.428C354.169,313.298,340.382,305.233,327.389,289.247z"/>
						<path style="fill:#263238;" d="M326.54,374.99c0.34-2.938-4.075-7.21-11.991-5.75c-9.495,1.752-14.029,6.963-8.541,7.937
							c5.488,0.973,13.214-1.422,16.433-4.137C322.441,373.04,325.288,373.01,326.54,374.99z"/>
						<path style="fill:#263238;" d="M289.943,353.239c-5.866,8.291-3.764,23.264,6.272,27.698
							C286.829,380.408,276.037,366.37,289.943,353.239z"/>
					</g>
					<path style="fill:#FAFAFA;" d="M300.373,377.832c0.355,0.251,2.15,1.233,2.323,1.642c0.698,1.653-3.613,0.463-4.124,0.242
						c-2.876-1.247-5.188-2.556-7.271-5.636c-1.48-2.189-1.871-5.148-1.281-8.054c0.384-1.892,2.505-4.823,3.711-2.957
						c0.325,0.503,0.239,1.264,0.151,2.242c-0.243,2.714-0.264,4.682,1.227,7.326C296.28,374.715,298.377,376.422,300.373,377.832z"
						/>
					<path style="fill:#FAFAFA;" d="M355.824,330.201c2,2.457,3.447,5.239,3.448,8.609c0.001,3.155-1.177,6.139-3.715,8.103
						c-1.103,0.854-2.511,1.395-3.892,1.199c-1.65-0.235-2.5-1.396-3-2.859c-0.154-0.451-0.191-0.932-0.226-1.407
						c-0.163-2.177-0.265-4.329-0.531-6.492c-0.312-2.534-1.572-6.951-2.727-9.242c-2.589-5.137-5.45-8.814-9.024-13.326
						c-2.205-2.784-3.361-3.982-3.309-4.813c0.075-1.189,1.313-0.954,1.951-0.36c3.755,3.494,7.446,7.058,11.069,10.688
						C349.146,323.582,352.894,326.601,355.824,330.201z"/>
				</g>
				<path style="fill:#FAFAFA;" d="M291.055,357.833c-0.011,0.289,0.005,0.584,0.102,0.856c0.237,0.666,0.938,1.09,1.642,1.16
					c0.704,0.07,1.406-0.16,2.039-0.474c1.385-0.687,2.596-1.864,2.997-3.357c0.136-0.508,0.168-1.081-0.102-1.532
					c-0.75-1.258-3.364-0.882-4.509-0.358C291.927,354.72,291.106,356.484,291.055,357.833z"/>
			</g>
			<g id="Eye">
				<path style="fill:#F28F8F;" d="M170.065,212.526c-33.044,11.183-47.576,50.883-34.415,50.13
					c12.612-0.722,25.97-20.671,62.462-19.031c0,0-70.091,34.84-62.461,75.8c0,0-11.9,4.157-19.666-11.354
					c-11.995-23.956,0.125-56.676,7.627-66.85C145.482,211.563,170.065,212.526,170.065,212.526z"/>
				<path style="fill:#F28F8F;" d="M206.501,243.246c6.49-2.535,11.084-3.893,13.663-7.927c0,0-1.048,2.618-0.934,5.903
					c0.114,3.284,26.778,14.509,27.362,47.328C246.591,288.549,240.29,256.586,206.501,243.246z"/>
				<path style="fill:#BA68C8;" d="M233.12,261.066c0,0-0.133-11.324-20.654-15.442c-20.52-4.117-52.291,12.55-65.588,28.386
					c-13.297,15.836-18.219,33.626-11.227,45.414c0,0,25.93-44.458,60.908-58.451C220.736,251.301,233.12,261.066,233.12,261.066z"
					/>
				<path style="opacity:0.2;" d="M174.635,256.779c-14.404,8.715-21.37,19.058-17.327,21.545
					c4.043,2.487,18.909-19.706,47.171-24.711c0,0-21.383,11.114-38.397,28.913c-17.014,17.798-30.432,36.899-30.432,36.899
					s-6.619-7.112-0.002-27.192C142.267,272.153,163.552,259.4,174.635,256.779z"/>
				<g>
					<path style="fill:#F0F0F0;" d="M141.905,314.648c2.61,6.476,10.115,16.541,29.689,19.852
						c19.574,3.311,43.908-3.034,62.979-20.409c0,0,6.611-8.519,8.604-9.598c3.598-1.948,6.575-0.995,9.142-3.054
						c2.567-2.06,2.317-5.066,0-6.682c-2.317-1.615-4.085-3.19-6.255-8.637c-2.17-5.447-6.936-24.34-20.042-27.744
						c-13.106-3.404-31.659,0.899-49.105,14.151C159.47,285.78,141.905,314.648,141.905,314.648z"/>
					<g>
						<path style="fill:#E0E0E0;" d="M243.177,304.493c3.598-1.948,6.575-0.995,9.142-3.054c2.568-2.06,2.317-5.066,0-6.682
							c-2.317-1.615-4.085-3.191-6.255-8.637c-2.17-5.447-6.936-24.34-20.042-27.744c-13.106-3.404-31.659,0.899-49.105,14.151
							c-17.447,13.253-35.011,42.121-35.011,42.121c2.61,6.476,10.115,16.541,29.689,19.852c5.267,0.891,10.883,1.058,16.644,0.524
							c-9.626,0.675-21.62-3.645-23.684-9.579c-2.172-6.244-3.31-18.238,10.427-31.566c13.737-13.328,43.229-27.034,55.333-17.032
							c12.104,10.003,9.938,26.925,4.259,37.244C234.572,314.092,241.184,305.573,243.177,304.493z"/>
						<path style="fill:#F28F8F;" d="M246.591,288.549c0.521,3.802,1.18,10.455-6.229,17.532c0,0,3.108-2.141,6.088-2.721
							c2.98-0.579,7.646-1.702,7.715-4.635c0.069-2.934-1.921-3.808-3.991-6.043C248.106,290.447,246.591,288.549,246.591,288.549z"
							/>
					</g>
				</g>
				<g>
					<path style="fill:#263238;" d="M148.262,323.889c0,0,8.55,7.332,24.58,9.728c16.03,2.397,29.034-1.15,29.034-1.15
						s-11.083,6.025-29.572,3.615C153.389,333.617,148.262,323.889,148.262,323.889z"/>
					<path style="fill:#263238;" d="M132.766,309.736c0.831-6.782,1.777-14.268,10.555-25.621
						c4.134-5.346,11.75-14.261,22.452-21.82c12.024-8.493,27.516-14.677,37.505-15.38c18.336-1.29,27.036,7.948,27.036,7.948
						s-5.294-9.13-18.643-11.031c0,0,8.574-4.289,8.493-8.514c0,0-2.325,5.325-22.052,8.306
						c-26.635,4.024-52.083,24.28-60.302,40.492C129.59,300.329,132.766,309.736,132.766,309.736z"/>
					<g>
						<g>
							<path style="fill:#BA68C8;" d="M149.995,302.394c3.513,14.194,15.598,24.656,29.966,24.656
								c17.119,0,30.997-14.851,30.997-33.172c0-12.808-6.783-23.92-16.714-29.448C194.244,264.431,165.657,275.914,149.995,302.394
								z"/>
						</g>
						<path style="opacity:0.2;" d="M194.244,264.431c0,0-15.859,6.376-30.424,20.568c-5.25,5.884-10.041,12.197-13.799,17.486
							c2.063,8.239,7.026,15.194,13.635,19.582c-1.262-6.695-0.24-16.968,11.324-28.189c7.438-7.217,19.494-14.537,30.91-18.151
							C202.981,270.978,198.977,267.066,194.244,264.431z"/>
						<path style="fill:#263238;" d="M194.084,267.141c8.945,5.473,14.454,15.607,14.454,26.739
							c0,16.956-12.819,30.751-28.576,30.751c-12.628,0-23.75-8.941-27.365-21.865C166.034,280.743,188.901,269.48,194.084,267.141
							 M194.244,264.431c0,0-28.587,11.482-44.249,37.963c3.513,14.194,15.598,24.657,29.966,24.657
							c17.119,0,30.997-14.852,30.997-33.172C210.958,281.072,204.175,269.959,194.244,264.431L194.244,264.431z"/>
						<ellipse style="fill:#263238;" cx="179.961" cy="293.879" rx="15.684" ry="16.784"/>
						<g>
							<path style="fill:#FAFAFA;" d="M153.313,315.086c-0.717-1.986,1.176-4.49,4.23-5.594c3.054-1.103,6.111-0.388,6.829,1.598
								c0.718,1.986-1.176,4.491-4.23,5.594C157.088,317.788,154.031,317.073,153.313,315.086z"/>
						</g>
						<path style="fill:#FAFAFA;" d="M179.458,291.041c0,3.135-2.542,5.677-5.677,5.677c-3.135,0-5.677-2.542-5.677-5.677
							c0-3.135,2.542-5.677,5.677-5.677C176.917,285.364,179.458,287.906,179.458,291.041z"/>
					</g>
					<g>
						<path style="fill:#263238;" d="M220.167,324.658c15.329-6.946,19.514-16.635,24.514-19.426c5-2.79,5.98-1.117,8.962-3.58
							c1.365-1.127,2.048-4.14,0.333-6.21c-1.632-1.97-4.492-3.894-5.955-7.24c-1.973-4.51-14.044-53.931-58.291-28.385
							c-44.247,25.546-58.996,62.446-58.996,62.446s7.546,2.08,14.749-6.436s35.385-44.522,57.549-53.172
							c20.578-8.031,25.563-1.539,30.421,2.839c4.859,4.377,9.208,14.856,12.953,24.047c1.856,4.555,4.074,4.956,5.682,6.672
							c1.554,1.659,1.712,4.383-2.281,5.599c-3.993,1.216-6.533,0.582-10.184,5.136
							C235.647,311.909,230.038,318.654,220.167,324.658z"/>
						<path style="fill:#263238;" d="M244.166,284.116c2.53,6.287,2.418,13.174,0.728,16.234c3.382-4.106,3.059-9.309,3.059-9.309
							L244.166,284.116z"/>
						<path style="fill:#263238;" d="M185.35,273.7c14.213-10.305,30.65-13.363,40.953-11.045
							c10.303,2.318,24.074,1.249,32.256-8.515c-9.151,5.677-19.181,5.553-35.585,2.281
							C206.569,253.15,190.953,266.241,185.35,273.7z"/>
						<path style="fill:#263238;" d="M232.29,260.974c4.675,0.314,7.754,3.9,12.928,5.314c2.173,0.594,4.806,0.631,6.699-0.388
							c-1.553,1.893-4.523,2.569-6.747,2.433c-3.604-0.22-6.738-2.483-9.899-2.838C235.27,265.495,235.021,262.629,232.29,260.974z"
							/>
					</g>
				</g>
				<path style="fill:#F28F8F;" d="M144.6,330.269c5.641,5.401,16.572,10.698,33.356,11.864c11.775,0.818,23.919-0.365,34.511-6.232
					c-2.135,2.038-16.092,11.316-34.512,10.193C157.959,344.874,149.005,336.456,144.6,330.269z"/>
				<path style="fill:#263238;" d="M251.916,179.457c4.85,1.918,1.726,15.076-8.106,20.753c-9.833,5.677-55.517,4.819-75.705,13.061
					c-20.188,8.242-39.502,22.609-54.791,52.225c5.202-27.008,24.334-47.831,45.389-61.564
					c21.055-13.733,55.607-15.074,70.358-17.913C243.81,183.179,251.916,179.457,251.916,179.457z"/>
				<path style="fill:#FAFAFA;" d="M253.642,194.533c-2.566,4.195-7.28,9.039-14.749,10.378c-7.469,1.338-0.272,2.417,6.458,0.626
					c6.73-1.792,13.21-8.164,13.209-11.003C258.559,191.694,256.209,190.337,253.642,194.533z"/>
			</g>
		</g>
	</g>
</g>
<g id="Plants">
	<g id="Flower_2_">
		<g>
			<path style="fill:#BA68C8;" d="M71.577,311.424c6.881-7.862,12.256-24.745,11.553-37.881c-0.893-16.7-7.242-25.154-7.242-25.154
				l-3.338,11.494l-2.831-12.607c0,0-7.867,10.238-9.354,22.878c-1.486,12.64,1.993,37.27,1.993,37.27s-6.292-19.53-16.421-30.219
				c-10.128-10.689-24.715-12.56-24.715-12.56l6.378,8.702l-9.451-5.123c0,0,2.979,16.681,12.438,25.549
				c9.459,8.868,25.592,17.84,25.592,17.84s-6.359-4.003-23.03-2.322c-16.671,1.681-22.077,8.434-25.504,13.438l10.511-1.518
				l-5.807,5.94c0,0,7.073,4.09,18.19,1.121s22.173-7.953,22.173-7.953s-12.23,7.961-18.977,20.994
				c-6.747,13.032-6.28,23.05-2.62,28.798l5.835-8.12l-1.98,10.007c0,0,7.63-2.409,11.93-9.012
				c4.882-7.498,12.809-18.875,13.921-38.053c0,0,2.457,21.165,9.69,31.926c7.233,10.761,12.951,13.238,19.116,14.309l-1.941-11.016
				l6.623,7.933c0,0,2.647-6.608,0.097-17.511c-2.824-12.072-11.722-23.336-20.814-30.885c0,0,12.809,7.688,26.104,4.233
				c13.296-3.456,18.575-9.367,18.575-9.367l-7.897-1.946l7.709-1.579c0,0-7.751-5.423-21.561-6.266
				C82.497,303.908,71.577,311.424,71.577,311.424z"/>
			<path style="opacity:0.2;" d="M100.551,312.192c-6.207-1.069-12.526-1.717-18.836-1.547c-3.419,0.092-6.827,0.429-10.217,0.868
				c-1.166,0.151-2.326,0.33-3.484,0.527c0.6-1.822,1.155-3.662,1.661-5.512c1.036-3.783,1.883-7.629,2.431-11.514
				c1.119-7.93,1.279-15.864,0.698-23.843c-0.039-0.54-0.514-0.247-0.51,0.162c0.073,7.659-0.817,15.489-2.492,22.959
				c-0.844,3.764-1.736,7.502-2.884,11.188c-0.582,1.869-1.243,3.708-1.921,5.544c-0.151,0.411-0.305,0.822-0.46,1.232
				c-0.659-1.243-1.341-2.474-2.056-3.687c-1.739-2.953-3.637-5.819-5.66-8.585c-3.938-5.383-8.425-10.284-13.484-14.634
				c-2.72-2.338-5.631-5.111-8.973-6.516c-0.07-0.029-0.102,0.118-0.067,0.158c1.41,1.623,3.094,2.972,4.665,4.434
				c1.549,1.441,3.07,2.915,4.522,4.455c2.778,2.948,5.381,6.08,7.857,9.285c2.412,3.122,4.636,6.38,6.64,9.779
				c1.01,1.712,1.969,3.454,2.875,5.224c0.233,0.455,0.451,0.931,0.667,1.414c-0.409-0.113-0.82-0.218-1.235-0.308
				c-1.506-0.324-3.048-0.497-4.587-0.556c-2.965-0.114-5.914,0.172-8.83,0.696c-3.03,0.544-6.044,1.207-9.052,1.86
				c-1.513,0.328-3.048,0.655-4.526,1.12c-1.503,0.473-2.896,1.139-4.348,1.728c-0.035,0.014-0.055,0.111-0.001,0.096
				c2.946-0.821,6.163-1.23,9.193-1.658c3.102-0.438,6.227-0.639,9.349-0.883c2.814-0.219,5.658-0.441,8.481-0.318
				c1.424,0.062,2.841,0.213,4.238,0.502c0.571,0.118,1.123,0.294,1.671,0.482c-10.709,8.316-16.341,20.903-21.055,33.245
				c-0.09,0.235,0.124,0.486,0.259,0.188c5.257-11.595,11.402-23.79,22.191-31.186c0.071-0.049,0.128-0.106,0.177-0.167
				c3.504,4.948,6.849,10.017,9.973,15.213c3.418,5.685,6.42,11.574,9.536,17.424c0.194,0.364,0.451-0.187,0.361-0.419
				c-4.357-11.274-10.211-22.082-16.564-32.368c0.084-0.167,0.127-0.372,0.103-0.634c-0.041-0.429-0.141-0.854-0.278-1.273
				c1.039-0.205,2.058-0.506,2.692-0.623c1.886-0.349,3.773-0.684,5.672-0.957c2.648-0.38,5.311-0.655,7.973-0.92
				c5.832-0.58,11.688-0.983,17.548-0.912C100.794,312.957,100.881,312.248,100.551,312.192z"/>
		</g>
		<g>
			<path style="fill:#BA68C8;" d="M66.836,310.539c1.528-5.235,0.36-14.409-2.86-20.472c-4.095-7.709-8.959-10.314-8.959-10.314
				l0.947,6.175l-4.112-5.345c0,0-1.473,6.576,0.603,12.886s9.139,17.204,9.139,17.204s-7.273-7.861-14.417-10.694
				c-7.145-2.832-14.461-0.511-14.461-0.511l4.933,2.717l-6.231,1.608c0,0,5.709,5.286,12.136,7.405
				c6.428,2.118,14.734,2.704,14.734,2.704s-2.587-0.383-10.109,4.078c-7.522,4.461-8.596,8.847-9.118,11.969l4.642-3.03
				l-2.264,4.284c0,0,5.47,0.168,10.253-3.464c5.195-3.946,7.483-7.61,7.483-7.61s-3.35,5.227-3.678,12.88
				c-0.328,7.653,1.07,13.353,4.067,15.269l1.336-6.942l1.506,6.962c0,0,2.552-2.226,3.525-6.222
				c1.252-5.14,0.809-12.505-0.962-21.67c0,0,5.03,7.821,10.82,11.324c5.79,3.503,11.285,3.072,13.123,2.504l-4.059-3.612
				l5.204,1.741c0,0-0.994-3.455-4.599-8.055c-3.991-5.093-9.886-8.724-15.85-10.298c0,0,7.754,0.823,13.287-3.736
				c5.534-4.559,6.733-8.519,6.733-8.519l-4.166,0.815l2.79-3.406c0,0-4.64-0.544-11.072,2.738
				C70.748,305.183,66.836,310.539,66.836,310.539z"/>
			<path style="opacity:0.25;" d="M66.836,310.539c1.528-5.235,0.36-14.409-2.86-20.472c-4.095-7.709-8.959-10.314-8.959-10.314
				l0.947,6.175l-4.112-5.345c0,0-1.473,6.576,0.603,12.886s9.139,17.204,9.139,17.204s-7.273-7.861-14.417-10.694
				c-7.145-2.832-14.461-0.511-14.461-0.511l4.933,2.717l-6.231,1.608c0,0,5.709,5.286,12.136,7.405
				c6.428,2.118,14.734,2.704,14.734,2.704s-2.587-0.383-10.109,4.078c-7.522,4.461-8.596,8.847-9.118,11.969l4.642-3.03
				l-2.264,4.284c0,0,5.47,0.168,10.253-3.464c5.195-3.946,7.483-7.61,7.483-7.61s-3.35,5.227-3.678,12.88
				c-0.328,7.653,1.07,13.353,4.067,15.269l1.336-6.942l1.506,6.962c0,0,2.552-2.226,3.525-6.222
				c1.252-5.14,0.809-12.505-0.962-21.67c0,0,5.03,7.821,10.82,11.324c5.79,3.503,11.285,3.072,13.123,2.504l-4.059-3.612
				l5.204,1.741c0,0-0.994-3.455-4.599-8.055c-3.991-5.093-9.886-8.724-15.85-10.298c0,0,7.754,0.823,13.287-3.736
				c5.534-4.559,6.733-8.519,6.733-8.519l-4.166,0.815l2.79-3.406c0,0-4.64-0.544-11.072,2.738
				C70.748,305.183,66.836,310.539,66.836,310.539z"/>
			<path style="opacity:0.3;" d="M75.44,308.424c1.295-0.741,2.609-1.526,3.972-2.126c0.16-0.071,0.217-0.578-0.017-0.517
				c-1.453,0.378-2.849,0.711-4.246,1.279c-1.432,0.582-2.801,1.262-4.127,2.056c-1.991,1.194-3.88,2.579-5.596,4.149
				c0.014-1.07-0.058-2.146-0.124-3.082c-0.152-2.175-0.513-4.372-0.975-6.501c-0.855-3.933-2.315-7.68-4.372-11.14
				c-0.081-0.135-0.206,0.123-0.162,0.217c1.741,3.664,3.021,7.604,3.588,11.628c0.272,1.926,0.334,3.824,0.294,5.766
				c-0.024,1.171-0.167,2.372-0.244,3.563c-2.207-2.622-5.188-4.798-8.081-6.369c-3.817-2.072-8.072-3.175-12.427-2.975
				c-0.115,0.005-0.196,0.302-0.067,0.325c4.179,0.765,8.255,2.105,11.972,4.19c1.808,1.014,3.521,2.21,5.073,3.587
				c0.891,0.791,1.685,1.647,2.456,2.526c-0.818,0.071-1.644,0.234-2.36,0.386c-1.431,0.304-2.78,0.818-4.08,1.487
				c-1.271,0.654-2.45,1.438-3.561,2.337c-0.602,0.487-1.185,0.998-1.746,1.531c-0.644,0.611-1.197,1.333-1.857,1.921
				c-0.039,0.035-0.026,0.135,0.023,0.08c0.968-1.085,2.413-1.934,3.662-2.656c1.173-0.678,2.422-1.261,3.686-1.749
				c1.329-0.512,2.727-0.899,4.124-1.174c0.66-0.13,1.327-0.222,1.997-0.276c-1.978,5.739-2.66,11.82-1.647,17.862
				c0.062,0.371,0.409,0.088,0.401-0.168c-0.176-6.001,0.687-12.105,2.813-17.737c0.044-0.003,0.09,0,0.133-0.004
				c0.082,0.096,0.163,0.191,0.246,0.287c0.365,0.42,0.641,0.232,0.789-0.126c2.629,0.9,5.028,2.264,7.428,3.681
				c2.677,1.581,5.145,3.45,7.48,5.492c0.085,0.074,0.152-0.121,0.136-0.178c-0.409-1.459-1.373-2.457-2.507-3.413
				c-1.377-1.161-2.838-2.217-4.246-3.338c-2.082-1.656-4.36-3.091-6.808-4.137c1.642-1.583,3.387-3.051,5.274-4.348
				C72.936,309.935,74.176,309.147,75.44,308.424z"/>
		</g>
		<g>
			<path style="fill:#263238;" d="M65.572,315.128c0.073,1.365-0.974,2.531-2.339,2.604c-1.365,0.073-2.531-0.974-2.604-2.339
				c-0.073-1.365,0.974-2.531,2.339-2.604S65.499,313.763,65.572,315.128z"/>
			<path style="fill:#263238;" d="M64.51,311.199c0.025,0.462-0.33,0.857-0.792,0.881c-0.462,0.025-0.857-0.33-0.882-0.792
				c-0.025-0.462,0.33-0.857,0.792-0.881C64.09,310.382,64.485,310.737,64.51,311.199z"/>
			<path style="fill:#263238;" d="M60.464,312.651c0.025,0.462-0.33,0.857-0.792,0.882c-0.462,0.025-0.857-0.33-0.881-0.792
				s0.33-0.857,0.792-0.881C60.045,311.834,60.439,312.189,60.464,312.651z"/>
			<path style="fill:#263238;" d="M60.059,316.786c0.025,0.462-0.33,0.857-0.792,0.881c-0.462,0.025-0.857-0.33-0.881-0.792
				s0.33-0.857,0.792-0.882C59.64,315.969,60.035,316.323,60.059,316.786z"/>
			<path style="fill:#263238;" d="M63.32,319.353c0.025,0.462-0.33,0.857-0.792,0.881c-0.462,0.025-0.857-0.33-0.882-0.792
				s0.33-0.857,0.792-0.881C62.9,318.536,63.295,318.891,63.32,319.353z"/>
			<path style="fill:#263238;" d="M67.245,318.079c0.025,0.462-0.33,0.857-0.792,0.881c-0.462,0.025-0.857-0.33-0.881-0.792
				c-0.025-0.462,0.33-0.857,0.792-0.881C66.826,317.263,67.22,317.617,67.245,318.079z"/>
			<path style="fill:#263238;" d="M68.227,314.147c0.025,0.462-0.33,0.857-0.792,0.882c-0.462,0.025-0.857-0.33-0.881-0.792
				c-0.025-0.462,0.33-0.857,0.792-0.881C67.808,313.33,68.202,313.685,68.227,314.147z"/>
			<path style="fill:#263238;" d="M66.519,312.001c0.01,0.18-0.128,0.333-0.308,0.342c-0.18,0.01-0.333-0.128-0.343-0.308
				c-0.01-0.18,0.128-0.333,0.308-0.343C66.356,311.684,66.51,311.822,66.519,312.001z"/>
			<path style="fill:#263238;" d="M61.54,311.358c0.01,0.18-0.128,0.333-0.308,0.342c-0.18,0.01-0.333-0.128-0.342-0.308
				c-0.01-0.18,0.128-0.333,0.308-0.342C61.377,311.04,61.53,311.178,61.54,311.358z"/>
			<path style="fill:#263238;" d="M58.785,314.652c0.01,0.18-0.128,0.333-0.308,0.342c-0.18,0.01-0.333-0.128-0.342-0.308
				c-0.01-0.18,0.128-0.333,0.308-0.343C58.622,314.335,58.776,314.472,58.785,314.652z"/>
			<path style="fill:#263238;" d="M60.498,318.897c0.01,0.18-0.128,0.333-0.308,0.343c-0.18,0.01-0.333-0.128-0.343-0.308
				c-0.01-0.18,0.128-0.333,0.308-0.342C60.335,318.58,60.489,318.717,60.498,318.897z"/>
			<path style="fill:#263238;" d="M65.161,319.136c0.01,0.18-0.128,0.333-0.308,0.343c-0.179,0.01-0.333-0.128-0.342-0.308
				c-0.01-0.18,0.128-0.333,0.308-0.342C64.998,318.819,65.151,318.956,65.161,319.136z"/>
			<path style="fill:#263238;" d="M67.627,316.037c0.01,0.18-0.128,0.333-0.308,0.343c-0.18,0.01-0.333-0.128-0.343-0.308
				c-0.01-0.18,0.128-0.333,0.308-0.342C67.464,315.719,67.617,315.857,67.627,316.037z"/>
		</g>
	</g>
	<g id="Flower_1_">
		<g>
			<path style="fill:#BA68C8;" d="M59.501,244.892c5.354-1.171,12.884-6.617,16.683-12.376c4.829-7.322,4.787-12.868,4.787-12.868
				l-4.991,3.807l2.736-6.2c0,0-6.51,1.866-11.077,6.734c-4.567,4.868-10.778,16.342-10.778,16.342s3.434-10.199,2.495-17.865
				c-0.94-7.666-6.509-13.003-6.509-13.003l-0.022,5.659l-4.417-4.723c0,0-1.916,7.58-0.691,14.27
				c1.225,6.689,4.706,14.299,4.706,14.299s-1.771-4.315-8.098-8.361c-7.404-4.735-11.561-5.518-17.648-5.907l3.605,3.171
				l-4.968-0.789c0,0,3.096,8.307,11.727,12.726c5.835,2.988,10.315,2.939,10.315,2.939s-6.223-0.439-13.132,2.955
				c-6.909,3.394-11.264,7.37-11.512,10.936l6.767-2.162l-5.417,4.679c0,0,3.192,1.18,7.185,0.115
				c5.137-1.369,11.421-5.305,18.654-11.278c0,0-4.478,8.201-4.782,14.995c-0.304,6.794,2.721,11.434,4.107,12.782l1.233-5.32
				l0.969,5.429c0,0,2.57-2.54,4.893-7.934c2.572-5.972,2.938-12.92,1.456-18.938c0,0,3.006,7.236,9.691,9.924
				c6.686,2.687,10.755,1.84,10.755,1.84l-2.724-3.283l4.347,0.822c0,0-1.753-4.355-7.744-8.45
				C66.108,245.765,59.501,244.892,59.501,244.892z"/>
			<path style="opacity:0.5;fill:#FFFFFF;" d="M59.501,244.892c5.354-1.171,12.884-6.617,16.683-12.376
				c4.829-7.322,4.787-12.868,4.787-12.868l-4.991,3.807l2.736-6.2c0,0-6.51,1.866-11.077,6.734
				c-4.567,4.868-10.778,16.342-10.778,16.342s3.434-10.199,2.495-17.865c-0.94-7.666-6.509-13.003-6.509-13.003l-0.022,5.659
				l-4.417-4.723c0,0-1.916,7.58-0.691,14.27c1.225,6.689,4.706,14.299,4.706,14.299s-1.771-4.315-8.098-8.361
				c-7.404-4.735-11.561-5.518-17.648-5.907l3.605,3.171l-4.968-0.789c0,0,3.096,8.307,11.727,12.726
				c5.835,2.988,10.315,2.939,10.315,2.939s-6.223-0.439-13.132,2.955c-6.909,3.394-11.264,7.37-11.512,10.936l6.767-2.162
				l-5.417,4.679c0,0,3.192,1.18,7.185,0.115c5.137-1.369,11.421-5.305,18.654-11.278c0,0-4.478,8.201-4.782,14.995
				c-0.304,6.794,2.721,11.434,4.107,12.782l1.233-5.32l0.969,5.429c0,0,2.57-2.54,4.893-7.934
				c2.572-5.972,2.938-12.92,1.456-18.938c0,0,3.006,7.236,9.691,9.924c6.686,2.687,10.755,1.84,10.755,1.84l-2.724-3.283
				l4.347,0.822c0,0-1.753-4.355-7.744-8.45C66.108,245.765,59.501,244.892,59.501,244.892z"/>
			<path style="opacity:0.6;fill:#BA68C8;" d="M65.507,251.464c1.277,0.786,2.602,1.567,3.787,2.48
				c0.139,0.107,0.615-0.086,0.448-0.264c-1.033-1.1-1.998-2.171-3.172-3.13c-1.203-0.983-2.461-1.864-3.8-2.651
				c-2.011-1.182-4.143-2.181-6.353-2.94c0.951-0.503,1.865-1.085,2.659-1.593c1.845-1.181,3.61-2.556,5.265-3.989
				c3.058-2.648,5.661-5.739,7.723-9.218c0.081-0.136-0.208-0.123-0.269-0.038c-2.394,3.299-5.254,6.325-8.53,8.762
				c-1.569,1.167-3.212,2.135-4.944,3.034c-1.045,0.542-2.173,0.994-3.261,1.499c1.25-3.209,1.736-6.886,1.729-10.194
				c-0.009-4.364-1.084-8.648-3.357-12.394c-0.06-0.099-0.361-0.028-0.319,0.098c1.336,4.055,2.116,8.296,2.066,12.578
				c-0.025,2.084-0.255,4.17-0.722,6.202c-0.269,1.167-0.642,2.279-1.046,3.382c-0.457-0.688-0.997-1.338-1.476-1.896
				c-0.957-1.117-2.06-2.059-3.276-2.884c-1.188-0.807-2.448-1.469-3.776-2.017c-0.719-0.296-1.419-0.607-2.159-0.846
				c-0.849-0.274-1.366-0.457-2.62-0.672c-0.051-0.009-0.132,0.042-0.059,0.058c1.423,0.331,2.867,1.198,4.106,1.952
				c1.163,0.708,2.278,1.529,3.316,2.41c1.091,0.926,2.106,1.973,3.021,3.074c0.432,0.52,0.834,1.064,1.204,1.629
				c-6.015,1.017-11.707,3.342-16.55,7.144c-0.297,0.234,0.119,0.403,0.341,0.273c5.209-3.043,11.009-5.22,17.001-6.055
				c0.024,0.038,0.043,0.079,0.068,0.116c-0.045,0.119-0.09,0.236-0.135,0.355c-0.195,0.524,0.104,0.677,0.492,0.635
				c0.472,2.752,0.423,5.526,0.328,8.324c-0.106,3.122-0.568,6.199-1.245,9.242c-0.025,0.11,0.18,0.076,0.223,0.034
				c1.091-1.063,1.507-2.394,1.805-3.854c0.362-1.774,0.59-3.57,0.901-5.353c0.459-2.634,0.628-5.334,0.373-7.997
				c2.187,0.687,4.321,1.519,6.374,2.56C62.969,249.982,64.261,250.697,65.507,251.464z"/>
		</g>
		<g>
			<path style="fill:#455A64;" d="M55.229,246.712c-1.215,0.75-2.808,0.373-3.558-0.843c-0.75-1.215-0.373-2.808,0.843-3.558
				c1.215-0.75,2.808-0.373,3.558,0.843C56.821,244.369,56.444,245.962,55.229,246.712z"/>
			<path style="fill:#455A64;" d="M58.3,243.772c-0.411,0.254-0.951,0.126-1.204-0.285c-0.254-0.411-0.126-0.951,0.285-1.204
				s0.951-0.126,1.204,0.285C58.84,242.979,58.712,243.518,58.3,243.772z"/>
			<path style="fill:#455A64;" d="M54.945,240.788c-0.411,0.254-0.951,0.126-1.204-0.285c-0.254-0.411-0.126-0.951,0.285-1.204
				c0.411-0.254,0.951-0.126,1.204,0.285C55.484,239.995,55.356,240.534,54.945,240.788z"/>
			<path style="fill:#455A64;" d="M50.951,242.486c-0.411,0.254-0.951,0.126-1.205-0.285c-0.254-0.411-0.126-0.951,0.285-1.204
				c0.411-0.254,0.951-0.126,1.204,0.285C51.49,241.693,51.362,242.232,50.951,242.486z"/>
			<path style="fill:#455A64;" d="M50.228,246.76c-0.411,0.254-0.951,0.126-1.205-0.285c-0.254-0.411-0.126-0.951,0.285-1.204
				c0.411-0.254,0.951-0.126,1.204,0.285C50.767,245.967,50.639,246.506,50.228,246.76z"/>
			<path style="fill:#455A64;" d="M53.359,249.722c-0.411,0.254-0.951,0.126-1.204-0.285c-0.254-0.411-0.126-0.951,0.285-1.204
				c0.411-0.254,0.951-0.126,1.204,0.285C53.898,248.929,53.771,249.469,53.359,249.722z"/>
			<path style="fill:#455A64;" d="M57.457,248.655c-0.411,0.254-0.951,0.126-1.204-0.285c-0.254-0.411-0.126-0.951,0.285-1.204
				c0.411-0.254,0.951-0.126,1.205,0.285C57.996,247.862,57.868,248.402,57.457,248.655z"/>
			<path style="fill:#455A64;" d="M58.57,246.016c-0.16,0.099-0.369,0.049-0.468-0.111c-0.099-0.16-0.049-0.369,0.111-0.468
				c0.16-0.099,0.369-0.049,0.468,0.111C58.78,245.708,58.73,245.917,58.57,246.016z"/>
			<path style="fill:#455A64;" d="M56.669,241.128c-0.16,0.099-0.37,0.049-0.468-0.111s-0.049-0.369,0.111-0.468
				c0.16-0.099,0.37-0.049,0.468,0.111C56.879,240.82,56.829,241.029,56.669,241.128z"/>
			<path style="fill:#455A64;" d="M52.27,240.25c-0.16,0.099-0.369,0.049-0.468-0.111c-0.099-0.16-0.049-0.369,0.111-0.468
				c0.16-0.099,0.369-0.049,0.468,0.111C52.48,239.942,52.43,240.151,52.27,240.25z"/>
			<path style="fill:#455A64;" d="M49.234,243.945c-0.16,0.099-0.369,0.049-0.468-0.111c-0.099-0.16-0.049-0.369,0.111-0.468
				c0.16-0.099,0.369-0.049,0.468,0.111C49.444,243.636,49.394,243.846,49.234,243.945z"/>
			<path style="fill:#455A64;" d="M51.348,248.339c-0.16,0.099-0.369,0.049-0.468-0.111c-0.099-0.16-0.049-0.369,0.111-0.468
				c0.16-0.099,0.369-0.049,0.468,0.111C51.557,248.031,51.507,248.241,51.348,248.339z"/>
			<path style="fill:#455A64;" d="M55.423,249.05c-0.16,0.099-0.369,0.049-0.468-0.111c-0.099-0.16-0.049-0.369,0.111-0.468
				c0.16-0.099,0.369-0.049,0.468,0.111C55.633,248.742,55.583,248.952,55.423,249.05z"/>
		</g>
	</g>
	<g id="Flower">
		<g>
			<path style="fill:#BA68C8;" d="M455.519,160.636c4.274-3.677,8.43-12.289,9.053-19.36c0.793-8.99-1.956-13.989-1.956-13.989
				l-2.657,5.887l-0.554-6.951c0,0-4.982,4.872-6.737,11.512c-1.755,6.64-1.769,20.064-1.769,20.064s-1.877-10.913-6.475-17.393
				s-12.249-8.589-12.249-8.589l2.746,5.134l-6.308-2.117c0,0,1.971,7.799,6.35,13.257c4.379,5.457,11.251,10.645,11.251,10.645
				s-3.712-3.041-11.418-3.611c-9.018-0.667-13.164,0.656-18.865,3.279l4.813,1.108l-4.883,1.715c0,0,6.863,6.007,16.838,5.789
				c6.744-0.148,10.775-2.382,10.775-2.382s-5.849,2.645-10.444,9.095c-4.596,6.45-6.595,12.179-5.076,15.529l5.069-5.266
				l-2.616,6.884c0,0,3.466-0.492,6.561-3.408c3.981-3.751,7.746-10.386,11.374-19.329c0,0-0.045,9.614,3.001,15.913
				c3.046,6.299,8.053,9.021,9.967,9.564l-1.484-5.419l3.531,4.441c0,0,1.085-3.556,0.551-9.575
				c-0.591-6.664-3.656-13.133-7.94-17.857c0,0,6.258,5.082,13.625,4.246c7.366-0.835,10.637-3.592,10.637-3.592l-4.071-1.64
				l4.338-1.381c0,0-3.716-3.085-11.142-3.864C461.927,158.196,455.519,160.636,455.519,160.636z"/>
			<path style="opacity:0.5;fill:#FFFFFF;" d="M455.519,160.636c4.274-3.677,8.43-12.289,9.053-19.36
				c0.793-8.99-1.956-13.989-1.956-13.989l-2.657,5.887l-0.554-6.951c0,0-4.982,4.872-6.737,11.512
				c-1.755,6.64-1.769,20.064-1.769,20.064s-1.877-10.913-6.475-17.393s-12.249-8.589-12.249-8.589l2.746,5.134l-6.308-2.117
				c0,0,1.971,7.799,6.35,13.257c4.379,5.457,11.251,10.645,11.251,10.645s-3.712-3.041-11.418-3.611
				c-9.018-0.667-13.164,0.656-18.865,3.279l4.813,1.108l-4.883,1.715c0,0,6.863,6.007,16.838,5.789
				c6.744-0.148,10.775-2.382,10.775-2.382s-5.849,2.645-10.444,9.095c-4.596,6.45-6.595,12.179-5.076,15.529l5.069-5.266
				l-2.616,6.884c0,0,3.466-0.492,6.561-3.408c3.981-3.751,7.746-10.386,11.374-19.329c0,0-0.045,9.614,3.001,15.913
				c3.046,6.299,8.053,9.021,9.967,9.564l-1.484-5.419l3.531,4.441c0,0,1.085-3.556,0.551-9.575
				c-0.591-6.664-3.656-13.133-7.94-17.857c0,0,6.258,5.082,13.625,4.246c7.366-0.835,10.637-3.592,10.637-3.592l-4.071-1.64
				l4.338-1.381c0,0-3.716-3.085-11.142-3.864C461.927,158.196,455.519,160.636,455.519,160.636z"/>
			<path style="opacity:0.6;fill:#BA68C8;" d="M464.169,163.65c1.54,0.087,3.122,0.147,4.641,0.394
				c0.179,0.029,0.514-0.379,0.277-0.458c-1.473-0.491-2.87-0.989-4.402-1.284c-1.569-0.302-3.139-0.485-4.737-0.542
				c-2.399-0.087-4.816,0.051-7.189,0.444c0.615-0.92,1.159-1.894,1.629-2.742c1.093-1.971,2.018-4.079,2.817-6.186
				c1.474-3.891,2.32-7.963,2.485-12.121c0.006-0.163-0.248-0.01-0.262,0.097c-0.555,4.157-1.665,8.295-3.44,12.102
				c-0.85,1.823-1.865,3.503-2.993,5.164c-0.681,1.001-1.482,1.963-2.219,2.952c-0.437-3.516-1.794-7.083-3.418-10.074
				c-2.142-3.946-5.209-7.3-9.098-9.58c-0.103-0.06-0.34,0.151-0.241,0.245c3.192,3.018,5.971,6.476,8.019,10.377
				c0.996,1.898,1.808,3.9,2.378,5.968c0.327,1.188,0.533,2.377,0.706,3.573c-0.75-0.399-1.557-0.724-2.264-0.995
				c-1.412-0.543-2.871-0.857-4.375-1.01c-1.47-0.149-2.935-0.133-4.404,0.02c-0.796,0.083-1.581,0.144-2.368,0.29
				c-0.903,0.167-1.46,0.254-2.701,0.673c-0.051,0.017-0.099,0.102-0.025,0.082c1.451-0.396,3.181-0.317,4.672-0.24
				c1.399,0.073,2.81,0.271,4.18,0.56c1.441,0.304,2.871,0.757,4.237,1.306c0.645,0.259,1.275,0.555,1.887,0.886
				c-4.948,3.861-8.965,8.749-11.491,14.558c-0.155,0.357,0.305,0.307,0.442,0.081c3.228-5.302,7.415-10.108,12.431-13.792
				c0.04,0.022,0.078,0.051,0.118,0.072c0.017,0.129,0.033,0.258,0.052,0.387c0.079,0.57,0.425,0.562,0.755,0.335
				c1.772,2.261,3.084,4.796,4.366,7.376c1.43,2.879,2.516,5.89,3.391,8.976c0.032,0.112,0.2-0.02,0.218-0.078
				c0.468-1.495,0.194-2.904-0.251-4.372c-0.54-1.783-1.211-3.521-1.801-5.286c-0.872-2.609-2.039-5.136-3.572-7.422
				c2.316-0.447,4.655-0.737,7.022-0.798C461.147,163.549,462.666,163.564,464.169,163.65z"/>
		</g>
		<g>
			<path style="fill:#455A64;" d="M452.541,164.371c-0.734,1.273-2.36,1.71-3.633,0.977c-1.273-0.734-1.71-2.36-0.977-3.633
				c0.734-1.273,2.36-1.71,3.633-0.977C452.838,161.472,453.275,163.098,452.541,164.371z"/>
			<path style="fill:#455A64;" d="M453.885,160.208c-0.248,0.431-0.799,0.579-1.23,0.331c-0.431-0.248-0.579-0.799-0.33-1.23
				c0.248-0.431,0.799-0.579,1.23-0.331C453.985,159.227,454.133,159.777,453.885,160.208z"/>
			<path style="fill:#455A64;" d="M449.388,159.148c-0.248,0.431-0.799,0.579-1.23,0.331c-0.431-0.248-0.579-0.799-0.331-1.23
				c0.248-0.431,0.799-0.579,1.23-0.331C449.488,158.166,449.637,158.717,449.388,159.148z"/>
			<path style="fill:#455A64;" d="M446.602,162.637c-0.248,0.431-0.799,0.579-1.23,0.331c-0.431-0.248-0.579-0.799-0.331-1.23
				c0.248-0.431,0.799-0.579,1.23-0.331C446.703,161.655,446.85,162.206,446.602,162.637z"/>
			<path style="fill:#455A64;" d="M448.037,166.86c-0.248,0.431-0.799,0.579-1.23,0.331c-0.431-0.248-0.579-0.799-0.331-1.23
				s0.799-0.579,1.23-0.331C448.137,165.878,448.285,166.429,448.037,166.86z"/>
			<path style="fill:#455A64;" d="M452.321,168.011c-0.248,0.431-0.799,0.579-1.23,0.331c-0.431-0.248-0.579-0.799-0.331-1.23
				c0.248-0.431,0.799-0.579,1.23-0.331C452.421,167.029,452.569,167.58,452.321,168.011z"/>
			<path style="fill:#455A64;" d="M455.508,165.042c-0.248,0.431-0.799,0.579-1.23,0.331c-0.431-0.248-0.579-0.799-0.331-1.23
				c0.248-0.431,0.799-0.579,1.23-0.33C455.609,164.06,455.757,164.611,455.508,165.042z"/>
			<path style="fill:#455A64;" d="M455.226,162.108c-0.097,0.167-0.311,0.225-0.478,0.128c-0.167-0.096-0.225-0.31-0.128-0.478
				c0.096-0.167,0.31-0.225,0.478-0.128S455.323,161.941,455.226,162.108z"/>
			<path style="fill:#455A64;" d="M451.115,158.612c-0.096,0.167-0.31,0.225-0.478,0.128c-0.167-0.096-0.225-0.31-0.128-0.478
				c0.096-0.167,0.31-0.225,0.478-0.128C451.154,158.231,451.212,158.445,451.115,158.612z"/>
			<path style="fill:#455A64;" d="M446.704,159.968c-0.096,0.167-0.31,0.225-0.478,0.128c-0.167-0.096-0.225-0.311-0.129-0.478
				c0.096-0.167,0.311-0.225,0.478-0.128C446.743,159.586,446.8,159.8,446.704,159.968z"/>
			<path style="fill:#455A64;" d="M445.761,164.797c-0.096,0.167-0.31,0.225-0.478,0.128c-0.167-0.096-0.225-0.311-0.128-0.478
				c0.096-0.167,0.31-0.225,0.478-0.128C445.8,164.415,445.858,164.629,445.761,164.797z"/>
			<path style="fill:#455A64;" d="M449.823,167.742c-0.096,0.167-0.31,0.225-0.478,0.128c-0.167-0.096-0.225-0.311-0.129-0.478
				c0.096-0.167,0.31-0.225,0.478-0.128C449.862,167.361,449.92,167.575,449.823,167.742z"/>
			<path style="fill:#455A64;" d="M453.861,166.393c-0.096,0.168-0.31,0.225-0.478,0.129c-0.167-0.096-0.225-0.311-0.128-0.478
				c0.096-0.167,0.31-0.225,0.478-0.128C453.9,166.012,453.957,166.226,453.861,166.393z"/>
		</g>
	</g>
	<g id="Leaves_3_">
		<path style="fill:#E0E0E0;" d="M412.622,374.141c-2.598,9.992-6.829,19.3-12.711,27.786c-5.095,7.351-11.365,13.851-18.339,19.438
			c-6.665,5.34-13.923,9.781-21.312,14.034c-10.018,5.766-20.219,11.223-30.836,15.814c-10.519,4.549-21.457,8.012-32.755,9.974
			c-10.054,1.746-20.207,2.861-30.396,3.397c-20.978,1.104-42.182,0.251-62.956-2.939c-7.886-1.211-15.728-2.824-23.397-5.038
			c-3.318,0.538-7.033,0.945-11.155,1.185c0.199,0.078,0.394,0.166,0.593,0.243c8.606,3.338,17.73,5.349,26.798,6.958
			c20.608,3.657,41.715,4.707,62.611,3.865c21.977-0.886,44.13-3.682,64.723-11.741c11.22-4.391,21.963-9.899,32.428-15.847
			c7.851-4.462,15.688-9.05,22.897-14.509c6.954-5.265,13.326-11.289,18.632-18.228c6-7.846,10.408-16.806,13.34-26.227
			c0.826-2.652,1.533-5.336,2.149-8.044C412.993,374.014,412.699,373.845,412.622,374.141z"/>
		<g>
			<path style="fill:#E0E0E0;" d="M416.436,354.052c-0.851,3.929-2.982,7.366-5.672,10.302c-2.776,3.03-5.907,5.711-8.314,9.067
				c-4.27,5.952-6.169,13.145-6.508,20.394c-0.195,4.16,0.1,8.339,0.754,12.448c0.07,0.441,0.423,0.945,0.899,0.998
				c0.462,0.051,0.704-0.378,0.639-0.792c-1.143-7.237-1.194-14.804,0.842-21.893c0.992-3.455,2.413-6.802,4.442-9.78
				c2.354-3.454,5.367-6.404,7.947-9.681c2.541-3.227,4.963-6.848,5.245-11.063C416.726,353.806,416.481,353.845,416.436,354.052
				L416.436,354.052z"/>
		</g>
		<g>
			<path style="fill:#E0E0E0;" d="M416.926,353.484c-0.219,1.138-0.13,2.313-0.056,3.466c0.078,1.218,0.229,2.43,0.397,3.639
				c0.34,2.452,0.698,4.888,0.912,7.357c0.367,4.228,0.17,8.453-0.493,12.643c-0.65,4.107-1.991,8.142-4.091,11.739
				c-2.102,3.599-4.95,6.679-8.106,9.377c-1.751,1.497-3.593,2.887-5.474,4.217c-0.949,0.672-1.901,1.341-2.858,2.001
				c-0.485,0.334-1.029,0.636-1.444,1.056c-0.385,0.388-0.787,0.753-1.189,1.125c-0.319,0.296-0.142,1.492,0.426,1.237
				c1.06-0.477,2.088-0.936,3.062-1.571c0.906-0.591,1.813-1.182,2.7-1.801c1.724-1.202,3.418-2.451,5.046-3.782
				c3.234-2.645,6.238-5.646,8.54-9.149c2.396-3.645,3.933-7.79,4.73-12.067c0.816-4.376,0.798-8.824,0.322-13.241
				c-0.288-2.675-0.861-5.294-1.302-7.945c-0.231-1.389-0.446-2.78-0.603-4.179c-0.156-1.392-0.142-2.815-0.365-4.194
				C417.058,353.279,416.936,353.427,416.926,353.484L416.926,353.484z"/>
		</g>
		<g>
			<path style="fill:#E0E0E0;" d="M420.043,409.87c-3.175,1.871-5.844,4.457-8.357,7.127c-1.332,1.416-2.706,2.792-4.028,4.218
				c-1.329,1.434-2.699,2.826-4.171,4.115c-3.041,2.664-6.509,4.831-10.575,5.426c-4.188,0.612-8.613,0.374-12.762-0.412
				c-1.725-0.327-3.402-0.811-5.163-0.936c-0.993-0.071-1.998-0.016-2.979,0.151c-1.169,0.198-2.993,0.557-3.521,1.718
				c-0.225,0.496,0.343,1.123,0.831,1.141c1.22,0.045,2.346-0.554,3.547-0.733c0.779-0.116,1.58-0.096,2.362-0.023
				c1.422,0.134,2.798,0.569,4.2,0.823c4.215,0.762,8.753,1.103,13.009,0.487c4.159-0.602,7.804-2.385,11.024-5.049
				c2.873-2.377,5.252-5.288,7.505-8.239c2.663-3.488,5.573-6.874,9.197-9.401C420.312,410.178,420.263,409.74,420.043,409.87
				L420.043,409.87z"/>
		</g>
		<g>
			<path style="fill:#E0E0E0;" d="M419.221,410.411c-1.318,0.469-2.566,0.982-3.819,1.612c-1.286,0.647-2.563,1.313-3.868,1.922
				c-2.619,1.223-5.471,1.817-8.331,2.139c-5.624,0.633-11.497,0.517-16.792,2.78c-1.388,0.593-2.776,1.29-4.002,2.174
				c-0.628,0.452-1.237,0.933-1.811,1.452c-0.581,0.524-1.062,1.144-1.58,1.731c-0.39,0.442,0.467,1.437,0.945,1.028
				c2.169-1.856,4.744-3.524,7.376-4.648c2.478-1.058,5.09-1.617,7.756-1.942c5.6-0.682,11.335-0.594,16.471-3.244
				c1.274-0.657,2.499-1.413,3.731-2.146c1.325-0.789,2.625-1.652,3.976-2.388C419.43,410.795,419.451,410.329,419.221,410.411
				L419.221,410.411z"/>
		</g>
		<g>
			<path style="fill:#E0E0E0;" d="M390.353,386.322c-1.714,2.815-4.476,4.884-6.999,6.931c-2.704,2.194-5.197,4.508-7.003,7.52
				c-1.831,3.056-2.986,6.47-3.729,9.942c-0.376,1.755-0.65,3.532-0.831,5.317c-0.211,2.083-0.324,4.18-0.72,6.239
				c-0.384,1.996-1.044,3.942-1.917,5.775c-0.44,0.924-0.934,1.824-1.49,2.683c-0.614,0.949-1.375,1.812-1.787,2.874
				c-0.121,0.311,0.207,1.165,0.654,0.883c1.59-1.005,2.607-2.875,3.481-4.496c0.861-1.596,1.548-3.285,2.042-5.03
				c1.078-3.811,1.052-7.802,1.649-11.696c0.541-3.529,1.46-7.035,3.049-10.246c1.554-3.139,3.779-5.658,6.322-8.028
				c1.392-1.298,2.822-2.554,4.145-3.924c1.299-1.345,2.406-2.902,3.267-4.561C390.544,386.393,390.46,386.146,390.353,386.322
				L390.353,386.322z"/>
		</g>
		<g>
			<path style="fill:#E0E0E0;" d="M389.734,387.651c-1.964,1.287-2.262,3.769-2.565,5.908c-0.435,3.072-0.71,6.168-1.089,9.247
				c-0.677,5.511-1.671,11.03-4.259,16.002c-1.471,2.827-3.472,5.412-5.793,7.592c-0.318,0.298,0.138,1.239,0.55,0.965
				c4.373-2.908,7.013-7.756,8.613-12.645c1.824-5.575,2.3-11.415,2.599-17.237c0.09-1.755,0.153-3.516,0.296-5.268
				c0.128-1.559,0.475-3.253,1.693-4.345C389.839,387.819,389.845,387.579,389.734,387.651L389.734,387.651z"/>
		</g>
		<g>
			<path style="fill:#E0E0E0;" d="M382.498,401.137c-2.208,3.883-2.525,8.433-3.459,12.718c-0.933,4.277-2.101,8.519-4.622,12.163
				c-1.394,2.015-3.139,3.633-5.098,5.089c-0.363,0.27,0.118,1.185,0.55,0.965c3.513-1.788,5.986-5.421,7.576-8.926
				c1.974-4.35,2.679-9.04,3.287-13.735c0.36-2.78,0.606-5.595,1.886-8.141C382.663,401.177,382.574,401.003,382.498,401.137
				L382.498,401.137z"/>
		</g>
		<g>
			<path style="fill:#E0E0E0;" d="M400.038,421.959c-3.534,2.175-7.858,2.713-11.905,3.139c-4.1,0.432-8.257,0.703-12.189,2.046
				c-1.01,0.345-2.019,0.749-2.952,1.27c-0.428,0.239-0.85,0.505-1.24,0.802c-0.225,0.172-0.444,0.356-0.647,0.554
				c-0.26,0.254-0.287,0.46-0.466,0.776c-0.145,0.255,0.041,0.972,0.444,0.817c0.527-0.203,0.987-0.371,1.486-0.65
				c0.484-0.27,0.964-0.539,1.459-0.791c0.833-0.425,1.672-0.815,2.551-1.137c1.792-0.655,3.664-1.088,5.541-1.418
				c3.963-0.698,7.967-1.066,11.853-2.163c2.18-0.616,4.258-1.661,6.121-2.94C400.198,422.193,400.193,421.864,400.038,421.959
				L400.038,421.959z"/>
		</g>
		<g>
			<path style="fill:#E0E0E0;" d="M320.763,455.509c0.921,3.777,4.089,6.785,7.328,8.695c3.59,2.117,7.692,3.099,11.826,3.326
				c9.052,0.495,17.972-2.353,27.031-1.646c2.239,0.175,4.478,0.571,6.603,1.309c2.338,0.811,4.482,2.026,6.496,3.453
				c0.45,0.319,0.557-0.457,0.269-0.709c-6.257-5.47-14.738-5.67-22.59-5.117c-5.022,0.354-10.017,1.125-15.056,1.221
				c-4.181,0.08-8.369-0.373-12.208-2.125c-1.873-0.854-3.617-1.969-5.107-3.396c-1.549-1.484-2.606-3.235-3.478-5.18
				C321.607,454.739,320.558,454.672,320.763,455.509L320.763,455.509z"/>
		</g>
		<g>
			<path style="fill:#E0E0E0;" d="M336.014,450.142c1.721-0.058,3.466,0.062,5.189,0.095c1.649,0.032,3.299,0.067,4.946,0.161
				c3.192,0.182,6.357,0.549,9.475,1.274c6.165,1.434,11.897,4.309,16.49,8.7c3.13,2.992,5.523,6.567,7.931,10.138
				c0.201,0.297,0.39-0.189,0.305-0.38c-1.562-3.521-3.874-6.654-6.54-9.428c-2.321-2.415-4.968-4.519-7.875-6.186
				c-5.634-3.229-11.976-4.72-18.418-5.121c-1.833-0.114-3.681-0.14-5.514-0.034c-2.016,0.117-3.974,0.456-5.973,0.702
				C336.001,450.069,335.977,450.143,336.014,450.142L336.014,450.142z"/>
		</g>
		<g>
			<path style="fill:#E0E0E0;" d="M325.026,455.377c1.105-0.766,2.479-0.722,3.77-0.825c1.536-0.122,3.072-0.19,4.612-0.25
				c3-0.116,6.008-0.028,8.998,0.25c5.696,0.53,11.425,1.646,16.847,3.483c1.574,0.533,3.079,1.227,4.639,1.79
				c1.631,0.588,3.16,1.339,4.683,2.164c0.056,0.03,0.109-0.119,0.05-0.153c-2.475-1.432-4.975-2.855-7.616-3.955
				c-2.831-1.18-5.682-2.241-8.638-3.069c-5.875-1.645-12.002-2.293-18.095-2.102c-1.739,0.055-3.47,0.199-5.192,0.448
				c-1.527,0.22-3.207,0.427-4.468,1.4C324.296,454.807,324.637,455.648,325.026,455.377L325.026,455.377z"/>
		</g>
		<g>
			<path style="fill:#E0E0E0;" d="M303.903,445.462c-5.791,1.474-10.804,4.921-15.477,8.526c-2.482,1.915-4.978,3.81-7.582,5.556
				c-2.661,1.785-5.557,3.252-8.556,4.378c-1.648,0.619-3.322,1.156-5.031,1.58c-1.894,0.471-3.853,0.683-5.736,1.187
				c-0.614,0.164-0.764,0.822-0.505,1.349c0.148,0.302,0.412,0.558,0.709,0.712c0.107,0.055,0.885,0.283,0.89,0.138
				c-0.106,0.002-0.212,0.004-0.317,0.005c0.189,0.033,0.378,0.04,0.569,0.022c0.254-0.01,0.509-0.024,0.763-0.041
				c0.495-0.032,0.982-0.075,1.473-0.15c0.882-0.135,1.757-0.302,2.627-0.497c1.58-0.356,3.14-0.799,4.671-1.327
				c3.15-1.088,6.185-2.556,8.988-4.358c2.642-1.698,5.032-3.689,7.415-5.728c2.31-1.977,4.519-4.072,6.954-5.898
				c2.542-1.906,5.241-3.629,8.245-4.703C304.301,446.106,304.269,445.369,303.903,445.462L303.903,445.462z"/>
		</g>
		<g>
			<path style="fill:#E0E0E0;" d="M323.673,432.759c-2.517,1.797-4.287,4.618-6.018,7.126c-1.801,2.609-3.864,4.988-6.278,7.049
				c-4.744,4.052-10.278,6.887-16.43,8.041c-1.992,0.374-3.968,0.857-5.916,1.414c-2.029,0.581-4.025,1.207-5.879,2.223
				c-0.87,0.477,0.307,2.053,1.119,1.799c1.9-0.594,3.755-1.314,5.666-1.877c1.699-0.501,3.417-0.912,5.143-1.307
				c3.039-0.696,5.911-1.712,8.696-3.119c2.702-1.366,5.303-3.036,7.551-5.075c2.35-2.132,4.353-4.582,6.078-7.24
				c0.986-1.52,1.949-3.056,2.923-4.583c0.98-1.536,2.156-2.913,3.402-4.238C323.791,432.907,323.812,432.661,323.673,432.759
				L323.673,432.759z"/>
		</g>
		<g>
			<path style="fill:#E0E0E0;" d="M323.66,432.637c-1.344,0.778-2.922,1.344-4.413,1.76c-1.612,0.451-3.26,0.76-4.909,1.041
				c-3.559,0.607-7.14,1.243-10.624,2.206c-7.064,1.951-13.305,6.446-17.341,12.567c-1.077,1.633-2.008,3.36-2.751,5.17
				c-0.717,1.749-1.304,3.847-2.854,5.062c-0.527,0.413,0.063,1.655,0.722,1.278c1.533-0.878,2.271-2.384,2.908-3.962
				c0.663-1.644,1.36-3.251,2.254-4.785c1.769-3.035,4.124-5.735,6.814-7.988c2.82-2.362,6.085-4.137,9.563-5.318
				c3.501-1.189,7.07-2.006,10.684-2.761c1.818-0.38,3.637-0.781,5.408-1.349c1.736-0.557,3.337-1.208,4.66-2.496
				C323.892,432.954,323.892,432.503,323.66,432.637L323.66,432.637z"/>
		</g>
		<g>
			<path style="fill:#E0E0E0;" d="M254.316,484.406c-1.055-0.223-2.126-0.526-3.198-0.635c-0.992-0.101-1.986-0.174-2.983-0.209
				c-1.886-0.067-3.774-0.085-5.66-0.162c-3.47-0.142-6.876-0.627-10.188-1.692c-5.895-1.896-11.281-5.302-15.376-9.96
				c-1.144-1.301-2.134-2.715-3.192-4.084c-1.134-1.468-2.46-3.12-4.232-3.815c-0.922-0.361-1.002,0.892-0.521,1.384
				c0.617,0.631,1.314,1.169,1.926,1.805c0.576,0.598,1.101,1.243,1.607,1.9c1.013,1.316,1.97,2.669,3.066,3.919
				c2.119,2.417,4.586,4.555,7.273,6.319c2.724,1.789,5.661,3.229,8.769,4.214c3.28,1.039,6.651,1.489,10.081,1.614
				c2.149,0.078,4.3,0.038,6.45,0.056c1.021,0.008,2.043,0.007,3.064,0.034c1.027,0.027,2.028-0.064,3.059,0.011
				C254.569,485.126,254.612,484.469,254.316,484.406L254.316,484.406z"/>
		</g>
		<g>
			<path style="fill:#E0E0E0;" d="M260.045,486.715c-1.446-0.33-2.895-1.011-4.18-1.757c-1.206-0.7-2.322-1.57-3.331-2.531
				c-2.078-1.981-3.72-4.334-5.596-6.495c-1.949-2.245-4.077-4.357-6.574-5.99c-2.196-1.437-4.596-2.53-7.126-3.228
				c-2.986-0.823-6.159-1.402-9.261-1.214c-1.1,0.067-0.628,1.68,0.193,1.862c0.986,0.219,1.96,0.442,2.962,0.563
				c0.713,0.086,1.427,0.179,2.137,0.286c1.215,0.184,2.429,0.412,3.617,0.73c2.208,0.592,4.476,1.59,6.401,2.846
				c2.364,1.542,4.526,3.398,6.501,5.409c2.046,2.084,3.962,4.318,6.134,6.274c1.1,0.99,2.275,1.896,3.595,2.576
				c0.674,0.347,1.388,0.657,2.116,0.874c0.351,0.105,0.69,0.107,1.049,0.152c0.428,0.054,0.851,0.158,1.28,0.215
				C260.212,487.321,260.289,486.771,260.045,486.715L260.045,486.715z"/>
		</g>
		<g>
			<path style="fill:#E0E0E0;" d="M239.059,479.345c-2.847-2.904-6.182-5.428-9.572-7.666c-1.712-1.13-3.476-2.205-5.307-3.132
				c-1.473-0.746-2.998-1.395-4.559-1.932c-0.772-0.266-1.554-0.512-2.346-0.707c-0.648-0.16-1.248-0.304-1.899-0.089
				c-0.695,0.229-0.103,1.317,0.268,1.544c1.072,0.655,2.502,0.768,3.701,1.123c0.974,0.289,1.934,0.626,2.878,1.003
				c1.952,0.781,3.857,1.706,5.676,2.759c3.827,2.217,7.273,5.02,11.098,7.226C239.048,479.502,239.091,479.377,239.059,479.345
				L239.059,479.345z"/>
		</g>
		<g>
			<path style="fill:#E0E0E0;" d="M259.502,442.401c-0.706-0.173-1.473-0.298-2.2-0.191c-0.775,0.114-1.563,0.398-2.288,0.682
				c-1.412,0.552-2.737,1.308-3.987,2.161c-2.673,1.824-5.035,4.066-7.409,6.252c-4.849,4.464-9.826,9.137-16.042,11.613
				c-3.399,1.354-6.989,1.942-10.64,1.616c-1.087-0.097-0.6,1.601,0.214,1.75c6.492,1.186,13.107-1.703,18.293-5.413
				c5.393-3.858,9.695-8.932,14.82-13.096c1.39-1.13,2.872-2.163,4.487-2.949c0.722-0.351,1.469-0.652,2.238-0.882
				c0.863-0.258,1.662-0.577,2.496-0.924C259.693,442.931,259.766,442.465,259.502,442.401L259.502,442.401z"/>
		</g>
		<g>
			<path style="fill:#E0E0E0;" d="M238.389,448.293c-0.993,0.243-1.973,0.429-2.907,0.861c-0.913,0.422-1.795,0.918-2.652,1.443
				c-1.714,1.05-3.33,2.253-4.904,3.501c-3.2,2.538-6.403,5.18-9.916,7.279c-0.992,0.593-2.012,1.14-3.063,1.621
				c-1.074,0.491-2.335,0.708-3.322,1.353c-0.713,0.466-0.018,1.75,0.733,1.68c1.06-0.1,1.985-0.56,2.932-1.03
				c0.869-0.431,1.713-0.908,2.529-1.434c1.715-1.105,3.321-2.37,4.868-3.696c3.219-2.758,6.26-5.708,9.817-8.044
				c0.94-0.617,1.909-1.189,2.914-1.694c0.994-0.499,1.942-1.1,2.97-1.52C238.487,448.571,238.534,448.258,238.389,448.293
				L238.389,448.293z"/>
		</g>
		<g>
			<path style="fill:#E0E0E0;" d="M259.502,442.401c-7.196-1.614-14.8-0.995-21.88,0.911c-3.784,1.019-7.428,2.451-10.826,4.413
				c-3.67,2.118-7.03,4.717-10.341,7.349c-4.019,3.194-8.029,6.4-12.043,9.6c-0.798,0.636,0.413,2.32,1.204,1.689
				c3.563-2.841,7.126-5.681,10.689-8.522c3.287-2.621,6.577-5.26,10.145-7.494c6.446-4.037,13.903-6.3,21.435-7.152
				c3.814-0.432,7.724-0.662,11.543-0.17C259.7,443.058,259.767,442.46,259.502,442.401L259.502,442.401z"/>
		</g>
	</g>
	<g id="Leaves">
		<g>
			<path style="fill:#E0E0E0;" d="M180.758,97.434c2.392-2.985,5.54-5.186,9.042-6.687c3.991-1.71,8.214-2.814,12.034-4.92
				c6.435-3.547,11.222-9.262,14.642-15.678c1.938-3.636,3.44-7.488,4.595-11.439c0.134-0.459-0.083-0.986-0.47-1.259
				c-0.316-0.222-0.863-0.26-0.998,0.201c-2.017,6.872-5.095,13.545-9.745,19.045c-2.307,2.729-4.964,5.171-8.005,7.061
				c-3.631,2.257-7.719,3.659-11.554,5.516c-3.744,1.813-7.664,4.073-9.694,7.857C180.546,97.241,180.594,97.638,180.758,97.434
				L180.758,97.434z"/>
		</g>
		<g>
			<path style="fill:#E0E0E0;" d="M180.087,97.703c0.668-0.852,1.061-1.878,1.469-2.877c0.442-1.082,0.815-2.191,1.171-3.303
				c0.358-1.117,0.693-2.241,1.034-3.364c0.346-1.14,0.807-2.251,1.215-3.37c1.413-3.879,3.29-7.507,5.527-10.971
				c2.211-3.424,4.912-6.512,8.152-8.998c3.456-2.651,7.447-4.429,11.609-5.65c2.402-0.705,4.852-1.236,7.314-1.679
				c1.192-0.215,2.387-0.416,3.582-0.608c0.615-0.099,1.264-0.143,1.865-0.305c0.58-0.157,1.158-0.351,1.736-0.522
				c0.524-0.155,0.343-1.296-0.19-1.294c-1.264,0.004-2.49,0.047-3.741,0.223c-1.116,0.157-2.23,0.32-3.341,0.511
				c-2.226,0.383-4.442,0.831-6.627,1.406c-4.229,1.113-8.372,2.732-12.009,5.191c-3.403,2.301-6.287,5.329-8.632,8.688
				c-2.441,3.497-4.188,7.434-5.531,11.47c-0.835,2.511-1.386,5.094-2.108,7.638c-0.361,1.271-0.745,2.534-1.17,3.786
				c-0.449,1.32-1.039,2.594-1.437,3.927C179.949,97.684,180.007,97.804,180.087,97.703L180.087,97.703z"/>
		</g>
		<g>
			<g>
				<path style="fill:#E0E0E0;" d="M224.268,81.145c2.717-2.313,6.301-3.447,9.571-4.731c3.352-1.316,6.435-2.953,9.065-5.448
					c2.536-2.407,4.574-5.3,6.262-8.349c1.843-3.328,2.997-6.996,4.916-10.277c1.01-1.728,2.259-3.323,3.665-4.746
					c0.719-0.728,1.482-1.416,2.288-2.047c0.749-0.586,1.573-1.083,2.19-1.817c0.317-0.377-0.099-1.124-0.591-0.978
					c-1.714,0.509-3.2,1.885-4.479,3.088c-1.304,1.227-2.477,2.595-3.487,4.074c-2.188,3.2-3.393,6.896-5.094,10.352
					c-1.601,3.253-3.554,6.376-6.067,9.006c-2.448,2.561-5.356,4.342-8.553,5.814c-1.763,0.812-3.55,1.576-5.267,2.484
					c-1.656,0.876-3.178,2.018-4.508,3.336C224.094,80.99,224.126,81.266,224.268,81.145L224.268,81.145z"/>
			</g>
			<g>
				<path style="fill:#E0E0E0;" d="M225.273,80.071c2.381-0.63,3.466-3.095,4.45-5.125c1.341-2.767,2.55-5.6,3.854-8.385
					c2.37-5.063,5.062-10.027,9.131-13.941c2.227-2.142,4.831-3.89,7.636-5.185c0.496-0.229,0.042-1.178-0.462-1.027
					c-5.079,1.524-9.096,5.327-12.14,9.55c-3.501,4.858-5.747,10.383-7.878,15.938c-0.596,1.553-1.142,3.135-1.81,4.659
					c-0.58,1.322-1.425,2.659-2.785,3.272C225.194,79.861,225.162,80.1,225.273,80.071L225.273,80.071z"/>
			</g>
			<g>
				<path style="fill:#E0E0E0;" d="M236.319,69.484c3.348-3.028,5.055-7.281,7.308-11.094c2.271-3.843,4.726-7.579,8.362-10.275
					c1.885-1.398,3.969-2.354,6.191-3.08c0.465-0.152,0.083-1.125-0.357-1.052c-4.153,0.694-7.81,3.619-10.492,6.733
					c-3.144,3.65-5.165,7.95-7.227,12.257c-1.076,2.248-2.08,4.498-3.853,6.306C236.183,69.351,236.202,69.59,236.319,69.484
					L236.319,69.484z"/>
			</g>
		</g>
		<g>
			<g>
				<path style="fill:#E0E0E0;" d="M201.513,47.839c7.95-1.438,14.533-6.672,22.058-9.311c2.044-0.717,4.203-1.241,6.375-1.319
					c2.103-0.076,4.115,0.312,6.127,0.891c3.757,1.081,7.46,2.754,10.741,4.882c1.263,0.82,2.519,1.66,3.925,2.221
					c0.881,0.352,1.781,0.631,2.721,0.769c1.189,0.174,2.73,0.4,3.754-0.373c0.501-0.378,0.199-0.959-0.226-1.26
					c-0.855-0.606-1.996-0.374-2.981-0.53c-0.707-0.112-1.417-0.302-2.076-0.577c-1.263-0.528-2.401-1.28-3.546-2.02
					c-3.224-2.082-6.84-3.688-10.495-4.841c-4.254-1.343-8.635-1.448-12.93-0.223c-4.024,1.148-7.724,3.204-11.26,5.397
					c-3.852,2.39-7.811,4.677-12.23,5.84C201.285,47.432,201.291,47.879,201.513,47.839L201.513,47.839z"/>
			</g>
			<g>
				<path style="fill:#E0E0E0;" d="M202.475,47.613c1.299,0.012,2.555-0.031,3.846-0.18c1.405-0.162,2.807-0.35,4.214-0.488
					c2.93-0.286,5.795,0.053,8.645,0.763c5.418,1.348,10.798,3.406,16.459,3.262c1.632-0.042,3.292-0.237,4.875-0.643
					c1.614-0.414,3.049-1.057,4.514-1.826c0.56-0.294-0.182-1.402-0.723-1.195c-2.723,1.042-5.707,1.703-8.624,1.837
					c-2.711,0.124-5.396-0.318-8.023-0.949c-5.355-1.287-10.598-3.241-16.198-2.617c-1.419,0.158-2.824,0.428-4.228,0.682
					c-1.585,0.287-3.176,0.649-4.767,0.88C202.29,47.163,202.282,47.612,202.475,47.613L202.475,47.613z"/>
			</g>
			<g>
				<path style="fill:#E0E0E0;" d="M224.453,43.413c4.208-0.837,8.583,0.183,12.664,1.208c3.86,0.969,7.713,2.101,11.723,2.173
					c1.081,0.019,2.185,0.002,3.255-0.169c0.533-0.085,1.08-0.202,1.596-0.363c0.276-0.086,0.604-0.177,0.859-0.321
					c0.198-0.112,0.333-0.296,0.509-0.437c0.265-0.213,0.083-0.92-0.291-0.9c-1.995,0.105-3.948,0.591-5.963,0.583
					c-1.873-0.008-3.751-0.252-5.592-0.579c-4.051-0.72-8.033-1.848-12.151-2.15c-2.217-0.162-4.457,0.079-6.607,0.626
					C224.324,43.116,224.296,43.444,224.453,43.413L224.453,43.413z"/>
			</g>
		</g>
		<g>
			<g>
				<path style="fill:#E0E0E0;" d="M312.01,39.159c0.114-4.051-2.371-7.893-5.163-10.616c-3.197-3.118-7.238-5.088-11.487-6.334
					c-8.477-2.486-17.605-2.163-25.921-5.308c-4.296-1.625-7.874-4.248-10.783-7.796c-0.375-0.457-0.633,0.215-0.403,0.557
					c4.308,6.425,11.771,9.035,19.015,10.522c4.533,0.931,9.125,1.527,13.661,2.441c4.465,0.9,8.934,2.226,12.664,4.926
					c1.822,1.318,3.451,2.902,4.717,4.766c1.386,2.039,2.088,4.264,2.496,6.674C310.908,39.593,311.987,39.991,312.01,39.159
					L312.01,39.159z"/>
			</g>
			<g>
				<path style="fill:#E0E0E0;" d="M295.838,40.348c-1.653-0.39-3.279-0.947-4.916-1.406c-1.589-0.445-3.176-0.909-4.744-1.425
					c-3.079-1.013-6.08-2.205-8.939-3.741c-5.637-3.028-10.419-7.374-13.702-12.889c-2.166-3.638-3.55-7.675-4.914-11.663
					c-0.124-0.361-0.396,0.018-0.361,0.246c1.062,7.01,4.81,13.79,9.811,18.788c4.571,4.568,10.294,7.665,16.372,9.74
					c1.682,0.574,3.399,1.071,5.133,1.462c2.07,0.467,4.141,0.669,6.236,0.963C295.843,40.428,295.867,40.355,295.838,40.348
					L295.838,40.348z"/>
			</g>
			<g>
				<path style="fill:#E0E0E0;" d="M307.778,38.161c-1.481,0.526-3.149-0.005-4.636-0.293c-1.405-0.272-2.802-0.59-4.194-0.92
					c-2.84-0.673-5.635-1.544-8.366-2.574c-5.517-2.081-10.943-4.734-15.782-8.118c-2.555-1.787-5.053-3.684-7.311-5.835
					c-0.053-0.05-0.118,0.094-0.073,0.139c2.122,2.13,4.29,4.199,6.67,6.037c2.426,1.873,4.935,3.613,7.58,5.165
					c5.159,3.027,10.787,5.162,16.604,6.53c1.606,0.378,3.227,0.672,4.864,0.881c1.59,0.203,3.365,0.517,4.899-0.116
					C308.43,38.894,308.186,38.016,307.778,38.161L307.778,38.161z"/>
			</g>
		</g>
		<g>
			<g>
				<path style="fill:#E0E0E0;" d="M288.413,59.323c6.091-0.965,11.448-4.096,16.588-7.343c2.555-1.614,5.1-3.24,7.765-4.668
					c2.976-1.595,6.1-2.81,9.357-3.691c1.684-0.455,3.399-0.825,5.129-1.06c0.884-0.12,1.772-0.214,2.66-0.291
					c0.519-0.045,1.036-0.104,1.554-0.162c0.569-0.063,1.203-0.023,1.653-0.413c0.496-0.429,0.239-1.31-0.302-1.605
					c-0.933-0.51-2.162-0.482-3.21-0.437c-0.835,0.036-1.667,0.118-2.496,0.22c-1.766,0.218-3.522,0.525-5.252,0.944
					c-3.267,0.79-6.459,2-9.445,3.54c-5.382,2.776-9.916,6.816-15.012,10.033c-2.814,1.776-5.787,3.34-9.023,4.173
					C288.104,58.634,288.112,59.371,288.413,59.323L288.413,59.323z"/>
			</g>
			<g>
				<path style="fill:#E0E0E0;" d="M267.595,70.192c1.278-0.736,2.32-1.753,3.345-2.801c1.157-1.185,2.214-2.433,3.275-3.702
					c2.021-2.418,4.257-4.59,6.819-6.433c2.503-1.8,5.213-3.322,8.076-4.471c2.972-1.193,6.151-1.868,9.333-2.176
					c2.016-0.196,4.029-0.507,6.018-0.89c1.94-0.374,3.921-0.763,5.729-1.581c1.062-0.48,0.038-2.118-0.928-1.898
					c-1.828,0.417-3.639,0.91-5.477,1.286c-1.768,0.361-3.551,0.638-5.34,0.872c-3.147,0.411-6.151,1.168-9.104,2.332
					c-5.683,2.239-10.582,5.838-14.383,10.625c-1.234,1.554-2.427,3.14-3.64,4.71c-1.11,1.436-2.403,2.694-3.754,3.9
					C267.508,70.012,267.474,70.262,267.595,70.192L267.595,70.192z"/>
			</g>
			<g>
				<path style="fill:#E0E0E0;" d="M267.63,70.3c1.412-0.654,3.032-1.066,4.556-1.35c1.668-0.311,3.36-0.474,5.05-0.608
					c1.543-0.123,3.085-0.219,4.621-0.41c2.153-0.268,4.353-0.461,6.478-0.902c7.171-1.489,13.626-5.278,18.179-11.057
					c1.209-1.534,2.272-3.19,3.163-4.928c0.835-1.63,1.616-3.56,3.221-4.588c0.493-0.316-0.019-1.613-0.6-1.348
					c-1.639,0.75-2.528,2.146-3.326,3.695c-0.799,1.551-1.612,3.068-2.626,4.492c-2.006,2.818-4.495,5.274-7.322,7.264
					c-2.942,2.072-6.245,3.604-9.733,4.489c-3.786,0.961-7.621,1.472-11.494,1.916c-1.835,0.21-3.673,0.44-5.476,0.846
					c-1.736,0.39-3.383,0.883-4.773,2.029C267.416,69.951,267.364,70.424,267.63,70.3L267.63,70.3z"/>
			</g>
		</g>
		<g>
			<g>
				<path style="fill:#E0E0E0;" d="M344.952,19.531c0.747,0.556,1.488,1.156,2.266,1.665c0.83,0.544,1.727,1.016,2.606,1.474
					c1.686,0.878,3.398,1.703,5.085,2.579c3.225,1.676,6.223,3.613,8.857,6.133c4.597,4.398,7.982,10.01,9.586,16.172
					c0.433,1.666,0.69,3.371,1.099,5.043c0.198,0.809,0.433,1.612,0.749,2.384c0.165,0.403,0.342,0.806,0.573,1.174
					c0.262,0.418,0.799,1.224,1.356,1.28c1.158,0.118,0.413-1.686,0.2-2.143c-0.369-0.79-0.641-1.62-0.864-2.461
					c-0.443-1.671-0.696-3.387-1.115-5.065c-1.539-6.158-4.846-12.131-9.409-16.567c-2.848-2.769-6.056-4.992-9.582-6.812
					c-1.936-1-3.923-1.897-5.88-2.854c-0.902-0.441-1.807-0.879-2.699-1.342c-0.883-0.459-1.789-0.821-2.654-1.324
					C344.829,18.696,344.737,19.371,344.952,19.531L344.952,19.531z"/>
			</g>
			<g>
				<path style="fill:#E0E0E0;" d="M340.746,14.992c2.255,1.751,3.896,4.31,4.898,6.961c1.088,2.878,1.503,5.94,2.345,8.889
					c0.796,2.788,1.824,5.498,3.389,7.949c1.35,2.116,3.009,4.018,4.919,5.646c1.11,0.946,2.278,1.82,3.487,2.634
					c0.61,0.411,1.231,0.803,1.86,1.184c0.83,0.503,1.734,0.842,2.628,1.214c0.366,0.152,0.763-0.096,0.863-0.451
					c0.116-0.409-0.129-0.928-0.447-1.182c-0.764-0.609-1.472-1.204-2.296-1.728c-0.568-0.361-1.135-0.726-1.694-1.102
					c-0.957-0.644-2.004-1.412-2.736-2.031c-1.808-1.528-3.338-3.243-4.566-5.182c-1.481-2.337-2.677-4.885-3.627-7.48
					c-1.04-2.842-1.886-5.77-3.044-8.568c-0.59-1.425-1.286-2.816-2.213-4.055c-0.476-0.636-0.997-1.239-1.573-1.786
					c-0.588-0.559-1.336-1.007-2.015-1.452C340.691,14.302,340.567,14.853,340.746,14.992L340.746,14.992z"/>
			</g>
			<g>
				<path style="fill:#E0E0E0;" d="M356.504,30.617c1.541,4.141,3.644,8.173,6.003,11.906c1.31,2.074,2.71,4.094,4.333,5.936
					c0.718,0.815,1.473,1.599,2.265,2.343c0.869,0.815,1.837,1.824,3.038,2.105c0.145,0.034,0.287,0.003,0.406-0.084
					c0.13-0.096,0.12-0.298,0.216-0.377c0.07-0.058-0.735-1.5-0.8-1.56c-0.089-0.083-0.188-0.154-0.282-0.232
					c-0.159-0.133-0.317-0.266-0.479-0.395c-0.329-0.262-0.657-0.523-0.978-0.795c-0.615-0.522-1.208-1.069-1.781-1.636
					c-1.146-1.135-2.208-2.356-3.216-3.614c-2.157-2.692-3.938-5.668-5.656-8.653c-0.976-1.695-1.894-3.418-2.983-5.046
					C356.545,30.448,356.487,30.571,356.504,30.617L356.504,30.617z"/>
			</g>
		</g>
		<g>
			<g>
				<path style="fill:#E0E0E0;" d="M324.607,57.206c2.615,1.941,6.358,1.618,9.399,1.08c3.239-0.573,6.378-1.639,9.511-2.615
					c6.15-1.917,12.469-3.872,18.99-3.437c3.616,0.241,7.042,1.28,10.158,3.134c0.343,0.204,0.721-0.035,0.81-0.38
					c0.104-0.405-0.12-0.9-0.452-1.139c-5.048-3.634-11.779-4.077-17.752-3.202c-6.818,0.998-13.103,3.842-19.736,5.54
					c-1.787,0.458-3.617,0.801-5.465,0.861c-1.803,0.059-3.545-0.341-5.337-0.446C324.455,56.584,324.434,57.077,324.607,57.206
					L324.607,57.206z"/>
			</g>
			<g>
				<path style="fill:#E0E0E0;" d="M346.173,60.907c1.027,0.212,2.02,0.458,3.076,0.466c0.974,0.008,1.952-0.059,2.92-0.161
					c1.999-0.21,3.974-0.604,5.931-1.058c3.984-0.925,8-1.952,12.074-2.395c1.147-0.125,2.305-0.21,3.46-0.197
					c1.261,0.014,2.528,0.277,3.78,0.206c0.859-0.049,0.349-1.491-0.187-1.672c-1.901-0.645-4.194-0.403-6.161-0.163
					c-2.046,0.25-4.066,0.714-6.054,1.249c-3.972,1.068-7.861,2.383-11.945,2.979c-1.099,0.16-2.206,0.27-3.316,0.307
					c-1.166,0.039-2.356,0.169-3.518,0.113C346.114,60.574,346.045,60.88,346.173,60.907L346.173,60.907z"/>
			</g>
			<g>
				<path style="fill:#E0E0E0;" d="M324.607,57.206c5.821,4.475,12.964,7.124,20.144,8.429c3.843,0.699,7.736,0.975,11.634,0.658
					c4.388-0.356,8.69-1.298,12.968-2.299c4.911-1.149,9.82-2.308,14.73-3.463c1.051-0.247,0.118-2.087-0.831-1.864
					c-4.316,1.015-8.632,2.029-12.948,3.044c-4.212,0.99-8.433,2.01-12.737,2.517c-7.552,0.89-15.287-0.305-22.44-2.795
					c-3.584-1.248-7.154-2.739-10.343-4.815C324.533,56.454,324.413,57.056,324.607,57.206L324.607,57.206z"/>
			</g>
		</g>
		<path style="fill:#E0E0E0;" d="M415.596,85.804c-4.315-6.554-9.601-12.385-15.513-17.532
			c-11.779-10.254-25.635-18.205-40.26-23.638c-6.094-2.264-12.37-4.174-18.781-5.294c-3.589-0.627-7.202-0.936-10.834-1.201
			c-5.976-0.437-11.963-0.688-17.954-0.765c-11.117-0.143-22.263,0.344-33.301,1.694c-4.656,0.569-9.288,1.315-13.867,2.337
			c-4.449,0.993-8.82,2.285-13.192,3.568c-8.987,2.638-17.952,5.542-26.476,9.454c-8.503,3.903-16.34,8.852-23.186,15.247
			c-3.522,3.29-6.703,6.914-9.563,10.792c-0.119,0.161-0.03,0.66,0.173,0.409c12.187-15.072,29.721-23.869,47.852-29.724
			c4.494-1.451,9.033-2.75,13.583-4.014c4.457-1.238,8.905-2.506,13.451-3.384c10.37-2.004,20.975-2.819,31.526-2.977
			c11.456-0.172,22.924,0.353,34.326,1.466c0.806,0.079,1.612,0.157,2.415,0.255c0.32,0.039,0.639,0.081,0.959,0.125
			c0.156,0.022,0.312,0.044,0.468,0.067c-0.012-0.002-0.024-0.004-0.036-0.006c0.186,0.028,0.205,0.031,0.056,0.009
			c-0.006-0.001-0.013-0.002-0.019-0.003c0.12,0.019,0.241,0.038,0.361,0.058c1.387,0.232,2.767,0.495,4.14,0.796
			c3.059,0.672,6.081,1.506,9.066,2.454c14.276,4.534,27.975,11.724,39.874,20.807c5.8,4.427,11.165,9.458,15.819,15.085
			c3.656,1.54,6.913,3.303,9.776,5.278C416.17,86.713,415.891,86.253,415.596,85.804z"/>
	</g>
	<g id="Leaves_2_">
		<path id="XMLID_503_" style="fill:#E0E0E0;" d="M142.646,87.502c-11.519-17.51-23.804-11.674-34.013-11.412
			c-11.303,0.29-19.318-6.208-19.318-6.208c5.93,10.237,18.271,19.793,30.559,19.666C130.186,89.443,136.624,85.378,142.646,87.502z
			"/>
		<path id="XMLID_263_" style="fill:#E0E0E0;" d="M164.811,84.737c-1.252-12.853-8.016-23.143-19.601-27.892
			c-11.585-4.749-16.852-11.862-16.852-11.862C133.908,72.763,155.73,83.08,164.811,84.737z"/>
	</g>
	<g id="Leaves_1_">
		<path id="XMLID_605_" style="fill:#E0E0E0;" d="M428.653,354.566c16.536-12.878,9.74-24.659,8.665-34.814
			c-1.191-11.245,4.648-19.751,4.648-19.751c-9.732,6.727-18.273,19.791-17.168,32.029
			C425.725,342.3,430.29,348.394,428.653,354.566z"/>
		<path id="XMLID_505_" style="fill:#E0E0E0;" d="M433.176,376.44c12.712-2.272,22.43-9.835,26.241-21.762
			c3.811-11.927,10.48-17.744,10.48-17.744C442.649,344.681,434.104,367.256,433.176,376.44z"/>
	</g>
</g>
</svg>
